<svg width="268" height="31" viewBox="0 0 268 31" fill="none" xmlns="http://www.w3.org/2000/svg">
<path d="M0.964 24.136C2.044 23.272 3.292 22.66 4.708 22.3C6.148 21.94 7.66 21.712 9.244 21.616C10.852 21.496 12.496 21.46 14.176 21.508C15.88 21.532 17.524 21.532 19.108 21.508C20.692 21.46 22.192 21.328 23.608 21.112C25.024 20.872 26.248 20.416 27.28 19.744L27.532 19.132L27.712 18.772C27.88 18.58 28.096 18.532 28.36 18.628C28.504 18.676 28.588 18.748 28.612 18.844C28.636 18.94 28.624 19.036 28.576 19.132L28.324 20.212C28.276 20.356 28.216 20.5 28.144 20.644C28.096 20.788 28.096 20.956 28.144 21.148C28.36 21.076 28.54 20.98 28.684 20.86C28.852 20.716 29.032 20.584 29.224 20.464C29.344 20.416 29.452 20.356 29.548 20.284C29.668 20.188 29.788 20.116 29.908 20.068C30.748 19.66 31.288 19.924 31.528 20.86L31.636 21.148C31.804 21.148 31.936 21.1 32.032 21.004C32.152 20.908 32.272 20.824 32.392 20.752L38.908 16.108C39.58 15.628 40.252 15.172 40.924 14.74C41.596 14.308 42.28 13.876 42.976 13.444C43.168 13.324 43.348 13.24 43.516 13.192C43.684 13.12 43.876 13.108 44.092 13.156C44.476 13.204 44.596 13.408 44.452 13.768C44.38 13.96 44.26 14.188 44.092 14.452L42.256 17.08C41.584 18.088 40.984 19.132 40.456 20.212C39.928 21.292 39.496 22.42 39.16 23.596C39.016 24.076 38.908 24.556 38.836 25.036C38.764 25.516 38.776 26.008 38.872 26.512C39.184 27.904 40.048 28.636 41.464 28.708C42.208 28.756 43.204 28.696 44.452 28.528C45.7 28.36 47.092 28.096 48.628 27.736C50.164 27.4 51.796 26.968 53.524 26.44C55.252 25.912 56.968 25.312 58.672 24.64C60.4 23.968 62.08 23.224 63.712 22.408C65.344 21.568 66.832 20.68 68.176 19.744C68.272 19.672 68.356 19.612 68.428 19.564C68.5 19.516 68.596 19.468 68.716 19.42C68.764 19.468 68.824 19.492 68.896 19.492C68.848 19.564 68.764 19.636 68.644 19.708C68.524 19.78 68.404 19.876 68.284 19.996C67.252 20.74 65.992 21.508 64.504 22.3C63.016 23.068 61.408 23.812 59.68 24.532C57.976 25.252 56.2 25.912 54.352 26.512C52.528 27.136 50.764 27.664 49.06 28.096C47.356 28.528 45.76 28.828 44.272 28.996C42.808 29.188 41.584 29.212 40.6 29.068C38.728 28.78 37.708 27.7 37.54 25.828C37.468 25.06 37.552 24.232 37.792 23.344C38.104 22.048 38.548 20.824 39.124 19.672C39.724 18.52 40.408 17.404 41.176 16.324L42.652 14.344C42.46 14.368 42.304 14.416 42.184 14.488C42.064 14.56 41.944 14.632 41.824 14.704C40.312 15.64 38.836 16.636 37.396 17.692C35.98 18.724 34.564 19.792 33.148 20.896L32.356 21.544C32.14 21.688 31.9 21.796 31.636 21.868C31.06 22.012 30.688 21.784 30.52 21.184L30.412 20.68C30.292 20.632 30.184 20.644 30.088 20.716C30.016 20.788 29.944 20.848 29.872 20.896C29.608 21.112 29.332 21.328 29.044 21.544C28.78 21.76 28.516 21.964 28.252 22.156C28.132 22.276 28 22.372 27.856 22.444C27.736 22.516 27.592 22.564 27.424 22.588C26.68 22.732 26.416 22.444 26.632 21.724C26.704 21.46 26.776 21.196 26.848 20.932C26.944 20.668 27.04 20.404 27.136 20.14C26.152 20.74 24.952 21.16 23.536 21.4C22.12 21.616 20.596 21.748 18.964 21.796C17.332 21.844 15.664 21.868 13.96 21.868C12.256 21.868 10.612 21.928 9.028 22.048C7.468 22.168 6.04 22.408 4.744 22.768C3.448 23.104 2.392 23.668 1.576 24.46C1.504 24.532 1.408 24.568 1.288 24.568C1.192 24.568 1.096 24.556 1 24.532C0.928 24.484 0.88 24.424 0.856 24.352C0.832 24.28 0.868 24.208 0.964 24.136ZM96.2234 19.744C96.3194 19.672 96.4034 19.612 96.4754 19.564C96.5474 19.516 96.6434 19.468 96.7634 19.42C96.8114 19.468 96.8714 19.492 96.9434 19.492C96.8954 19.564 96.8114 19.636 96.6914 19.708C96.5714 19.78 96.4514 19.876 96.3314 19.996C94.4594 21.148 92.4434 22.192 90.2834 23.128C88.1234 24.064 85.9754 24.844 83.8394 25.468C81.7274 26.116 79.6994 26.584 77.7554 26.872C75.8114 27.184 74.1074 27.268 72.6434 27.124C71.8994 27.052 71.2994 26.824 70.8434 26.44C70.3874 26.056 70.0994 25.516 69.9794 24.82C69.9074 24.364 69.9554 23.668 70.1234 22.732C70.3154 21.796 70.7714 20.728 71.4914 19.528C70.8194 20.08 70.2314 20.668 69.7274 21.292C69.2474 21.892 68.7794 22.552 68.3234 23.272C68.2274 23.44 68.1074 23.584 67.9634 23.704C67.8194 23.8 67.6274 23.836 67.3874 23.812C67.2434 23.836 67.1354 23.812 67.0634 23.74C66.9674 23.644 66.9434 23.536 66.9914 23.416C67.1354 22.672 67.3514 21.892 67.6394 21.076C67.9274 20.236 68.3234 19.576 68.8274 19.096C69.0674 18.88 69.3194 18.796 69.5834 18.844C69.8474 18.868 70.1114 18.976 70.3754 19.168C70.4954 19.264 70.5794 19.3 70.6274 19.276C70.6994 19.252 70.7714 19.204 70.8434 19.132C71.0354 18.964 71.2274 18.808 71.4194 18.664C71.6354 18.496 71.8394 18.316 72.0314 18.124C72.3194 17.884 72.6074 17.692 72.8954 17.548C73.2074 17.38 73.5314 17.224 73.8674 17.08C73.9874 17.032 74.0954 16.996 74.1914 16.972C74.3114 16.948 74.4314 16.96 74.5514 17.008C74.9354 17.08 75.0074 17.26 74.7674 17.548C74.6234 17.716 74.5034 17.908 74.4074 18.124C74.3114 18.34 74.1914 18.496 74.0474 18.592C73.5674 18.88 73.1114 19.276 72.6794 19.78C72.2714 20.284 71.9114 20.836 71.5994 21.436C71.2874 22.012 71.0474 22.612 70.8794 23.236C70.7354 23.86 70.6994 24.436 70.7714 24.964C70.8674 25.468 71.0834 25.888 71.4194 26.224C71.7554 26.584 72.2714 26.788 72.9674 26.836C74.4074 26.956 76.0994 26.86 78.0434 26.548C79.9874 26.236 82.0034 25.756 84.0914 25.108C86.2034 24.484 88.3034 23.716 90.3914 22.804C92.5034 21.892 94.4474 20.872 96.2234 19.744ZM70.1594 19.96C69.9194 19.888 69.6794 19.924 69.4394 20.068C69.2234 20.212 69.0194 20.416 68.8274 20.68C68.6594 20.944 68.5154 21.268 68.3954 21.652C68.2754 22.012 68.2034 22.384 68.1794 22.768C68.2274 22.744 68.3234 22.624 68.4674 22.408C68.6114 22.168 68.7794 21.904 68.9714 21.616C69.1634 21.328 69.3554 21.04 69.5474 20.752C69.7634 20.44 69.9674 20.176 70.1594 19.96ZM102.586 25.324C100.594 24.916 99.6581 23.704 99.7781 21.688C99.8021 21.256 99.8621 20.836 99.9581 20.428C100.054 20.02 100.15 19.612 100.246 19.204C100.294 19.012 100.342 18.832 100.39 18.664C100.462 18.472 100.474 18.268 100.426 18.052C100.258 18.076 100.138 18.136 100.066 18.232C99.9941 18.328 99.9101 18.424 99.8141 18.52C99.2621 19.024 98.7581 19.564 98.3021 20.14C97.8461 20.692 97.3781 21.256 96.8981 21.832C96.6821 22.12 96.4541 22.408 96.2141 22.696C95.9981 22.96 95.7701 23.236 95.5301 23.524C95.2901 23.812 95.0261 23.956 94.7381 23.956C94.1381 24.004 93.9101 23.764 94.0541 23.236C94.2221 22.612 94.4381 22.012 94.7021 21.436C94.9661 20.836 95.3021 20.284 95.7101 19.78C95.8541 19.636 95.9981 19.516 96.1421 19.42C96.3101 19.3 96.5021 19.24 96.7181 19.24C96.8381 19.24 96.9341 19.264 97.0061 19.312C97.1021 19.336 97.1621 19.42 97.1861 19.564C97.2341 19.828 97.1381 19.96 96.8981 19.96C96.7541 19.96 96.6581 20.044 96.6101 20.212C96.2981 20.644 96.0581 21.076 95.8901 21.508C96.0581 21.556 96.1661 21.532 96.2141 21.436C96.2621 21.34 96.3101 21.256 96.3581 21.184C96.8621 20.56 97.3781 19.96 97.9061 19.384C98.4341 18.784 98.9861 18.208 99.5621 17.656C99.7061 17.512 99.8621 17.392 100.03 17.296C100.198 17.176 100.378 17.092 100.57 17.044C101.338 16.852 101.722 17.164 101.722 17.98C101.722 18.244 101.686 18.508 101.614 18.772C101.566 19.012 101.518 19.264 101.47 19.528L101.146 21.112C100.978 21.952 101.038 22.72 101.326 23.416C101.638 24.088 102.202 24.568 103.018 24.856C103.402 25 104.026 25.072 104.89 25.072C105.754 25.096 106.762 25.048 107.914 24.928C109.09 24.808 110.362 24.616 111.73 24.352C113.098 24.064 114.502 23.716 115.942 23.308C117.382 22.876 118.798 22.372 120.19 21.796C121.606 21.196 122.914 20.512 124.114 19.744C124.21 19.672 124.294 19.612 124.366 19.564C124.438 19.516 124.534 19.468 124.654 19.42C124.702 19.468 124.762 19.492 124.834 19.492C124.786 19.564 124.702 19.636 124.582 19.708C124.462 19.78 124.342 19.876 124.222 19.996C122.782 20.956 121.21 21.772 119.506 22.444C117.826 23.092 116.158 23.632 114.502 24.064C112.846 24.496 111.274 24.82 109.786 25.036C108.322 25.252 107.11 25.384 106.15 25.432C104.95 25.552 103.762 25.516 102.586 25.324ZM127.677 25.9C127.245 25.948 126.789 25.996 126.309 26.044C125.853 26.116 125.421 26.116 125.013 26.044C124.629 25.996 124.293 25.852 124.005 25.612C123.717 25.396 123.537 25.036 123.465 24.532C123.393 23.788 123.429 23.032 123.573 22.264C123.645 21.784 123.753 21.316 123.897 20.86C124.041 20.404 124.209 19.948 124.401 19.492C124.545 19.108 124.785 18.904 125.121 18.88C125.505 18.832 125.745 18.868 125.841 18.988C125.937 19.108 125.925 19.348 125.805 19.708C125.709 19.972 125.589 20.308 125.445 20.716C125.301 21.1 125.169 21.52 125.049 21.976C124.929 22.432 124.833 22.888 124.761 23.344C124.713 23.776 124.725 24.172 124.797 24.532C124.869 24.892 125.025 25.168 125.265 25.36C125.529 25.576 125.913 25.672 126.417 25.648C127.017 25.6 127.749 25.516 128.613 25.396C129.501 25.276 130.461 25.108 131.493 24.892C132.549 24.676 133.665 24.412 134.841 24.1C136.017 23.764 137.193 23.392 138.369 22.984C139.569 22.552 140.757 22.072 141.933 21.544C143.109 20.992 144.213 20.392 145.245 19.744C145.341 19.672 145.425 19.612 145.497 19.564C145.569 19.516 145.665 19.468 145.785 19.42C145.833 19.468 145.893 19.492 145.965 19.492C145.917 19.564 145.833 19.636 145.713 19.708C145.593 19.78 145.473 19.876 145.353 19.996C143.913 20.956 142.365 21.772 140.709 22.444C139.053 23.116 137.409 23.68 135.777 24.136C134.169 24.592 132.657 24.952 131.241 25.216C129.825 25.504 128.637 25.732 127.677 25.9ZM125.481 17.188C124.953 17.188 124.749 16.96 124.869 16.504C124.989 16.144 125.109 15.796 125.229 15.46C125.373 15.124 125.565 14.812 125.805 14.524C126.237 14.044 126.705 13.9 127.209 14.092C127.497 14.164 127.545 14.32 127.353 14.56C127.161 14.824 126.957 15.076 126.741 15.316C126.549 15.556 126.369 15.82 126.201 16.108C126.153 16.228 126.093 16.336 126.021 16.432C125.973 16.504 125.937 16.6 125.913 16.72C125.841 16.96 125.793 17.104 125.769 17.152C125.745 17.176 125.649 17.188 125.481 17.188ZM173.719 19.744C173.839 19.696 173.923 19.648 173.971 19.6C174.043 19.528 174.139 19.468 174.259 19.42C174.307 19.468 174.367 19.492 174.439 19.492C174.391 19.564 174.307 19.636 174.187 19.708C174.067 19.78 173.947 19.876 173.827 19.996C172.867 20.572 171.739 21.016 170.443 21.328C169.171 21.616 167.779 21.844 166.267 22.012C164.779 22.156 163.207 22.264 161.551 22.336C159.919 22.408 158.251 22.504 156.547 22.624C154.867 22.72 153.175 22.876 151.471 23.092C149.791 23.284 148.159 23.596 146.575 24.028C146.479 24.052 146.419 24.1 146.395 24.172C146.371 24.244 146.359 24.316 146.359 24.388C146.359 24.604 146.443 24.724 146.611 24.748C147.043 24.796 147.415 24.904 147.727 25.072C148.423 25.48 148.675 26.056 148.483 26.8C148.363 27.16 148.183 27.4 147.943 27.52C147.703 27.664 147.415 27.664 147.079 27.52C146.767 27.376 146.479 27.196 146.215 26.98C145.975 26.788 145.819 26.5 145.747 26.116C145.723 26.044 145.699 25.972 145.675 25.9C145.651 25.852 145.627 25.804 145.603 25.756C145.531 25.42 145.339 25.336 145.027 25.504L144.163 26.008C144.019 26.08 143.875 26.128 143.731 26.152C143.587 26.176 143.431 26.104 143.263 25.936C143.383 25.648 143.563 25.396 143.803 25.18C144.019 24.988 144.259 24.796 144.523 24.604C144.787 24.412 144.967 24.208 145.063 23.992C145.135 23.752 145.159 23.464 145.135 23.128C145.087 22.048 145.159 21.004 145.351 19.996C145.519 18.988 145.771 17.98 146.107 16.972C146.995 14.284 148.135 11.776 149.527 9.448C150.943 7.12 152.587 4.9 154.459 2.788C155.059 2.068 155.707 1.468 156.403 0.987998C156.667 0.819999 156.919 0.687999 157.159 0.591999C157.423 0.471999 157.699 0.387999 157.987 0.339998C158.467 0.291998 158.827 0.387999 159.067 0.627998C159.307 0.843998 159.415 1.192 159.391 1.672C159.367 1.936 159.307 2.2 159.211 2.464C159.115 2.704 159.007 2.956 158.887 3.22C158.551 3.916 158.179 4.588 157.771 5.236C157.363 5.86 156.943 6.484 156.511 7.108C155.503 8.524 154.471 9.904 153.415 11.248C152.383 12.568 151.339 13.912 150.283 15.28C149.755 15.976 149.239 16.66 148.735 17.332C148.231 18.004 147.715 18.676 147.187 19.348C146.827 19.78 146.635 20.224 146.611 20.68L146.359 22.552C146.311 22.936 146.323 23.308 146.395 23.668C148.411 23.212 150.319 22.888 152.119 22.696C153.943 22.48 155.671 22.336 157.303 22.264C158.935 22.168 160.483 22.096 161.947 22.048C163.435 22 164.851 21.904 166.195 21.76C167.563 21.616 168.859 21.4 170.083 21.112C171.331 20.8 172.543 20.344 173.719 19.744ZM147.223 18.088C147.367 18.04 147.463 17.968 147.511 17.872C147.583 17.776 147.655 17.68 147.727 17.584L151.507 12.688C152.251 11.704 152.983 10.732 153.703 9.772C154.423 8.812 155.131 7.828 155.827 6.82C156.235 6.22 156.619 5.62 156.979 5.02C157.363 4.396 157.711 3.76 158.023 3.112C158.143 2.872 158.239 2.644 158.311 2.428C158.383 2.188 158.431 1.936 158.455 1.672C158.455 1.552 158.455 1.42 158.455 1.276C158.455 1.108 158.383 0.976 158.239 0.879999C158.095 0.76 157.963 0.748 157.843 0.844C157.723 0.939999 157.603 1.024 157.483 1.096C157.051 1.36 156.655 1.672 156.295 2.032C155.935 2.392 155.587 2.764 155.251 3.148C154.555 3.94 153.919 4.768 153.343 5.632C152.767 6.496 152.191 7.372 151.615 8.26C150.727 9.628 149.947 11.044 149.275 12.508C148.627 13.948 148.039 15.424 147.511 16.936C147.439 17.128 147.367 17.32 147.295 17.512C147.223 17.68 147.199 17.872 147.223 18.088ZM146.467 25.18C146.515 25.516 146.587 25.828 146.683 26.116C146.803 26.428 146.983 26.716 147.223 26.98C147.439 27.22 147.619 27.196 147.763 26.908C147.859 26.716 147.895 26.512 147.871 26.296C147.847 26.08 147.775 25.888 147.655 25.72C147.535 25.552 147.367 25.408 147.151 25.288C146.959 25.192 146.731 25.156 146.467 25.18ZM186.044 23.56C187.58 23.152 189.116 22.636 190.652 22.012C192.188 21.388 193.664 20.632 195.08 19.744C195.176 19.672 195.26 19.612 195.332 19.564C195.404 19.516 195.5 19.468 195.62 19.42C195.668 19.468 195.728 19.492 195.8 19.492C195.752 19.564 195.668 19.636 195.548 19.708C195.428 19.78 195.308 19.876 195.188 19.996C193.772 20.932 192.296 21.712 190.76 22.336C189.224 22.936 187.676 23.452 186.116 23.884C185.18 24.148 184.16 24.388 183.056 24.604C181.952 24.796 180.872 24.94 179.816 25.036C178.784 25.156 177.812 25.204 176.9 25.18C176.012 25.18 175.28 25.084 174.704 24.892C173.96 24.652 173.468 24.196 173.228 23.524C172.988 22.852 172.904 22.12 172.976 21.328C173.048 20.536 173.24 19.768 173.552 19.024C173.888 18.256 174.236 17.668 174.596 17.26C175.124 16.612 175.808 16.42 176.648 16.684C177.176 16.828 177.368 17.14 177.224 17.62C177.032 18.508 176.636 19.252 176.036 19.852C175.7 20.188 175.316 20.332 174.884 20.284C174.62 20.26 174.452 20.38 174.38 20.644C174.308 20.884 174.248 21.196 174.2 21.58C174.152 21.94 174.128 22.312 174.128 22.696C174.152 23.056 174.212 23.404 174.308 23.74C174.428 24.052 174.608 24.28 174.848 24.424C175.232 24.664 175.856 24.796 176.72 24.82C177.608 24.844 178.592 24.808 179.672 24.712C180.752 24.592 181.856 24.436 182.984 24.244C184.136 24.028 185.156 23.8 186.044 23.56ZM174.884 19.636C175.148 19.444 175.316 19.24 175.388 19.024C175.484 18.784 175.544 18.532 175.568 18.268C175.376 18.46 175.22 18.652 175.1 18.844C174.98 19.036 174.908 19.3 174.884 19.636ZM199.701 21.364C200.733 20.932 201.873 20.632 203.121 20.464C204.369 20.296 205.653 20.2 206.973 20.176C208.293 20.152 209.601 20.164 210.897 20.212C212.217 20.26 213.453 20.296 214.605 20.32C215.781 20.344 216.837 20.332 217.773 20.284C218.709 20.212 219.453 20.032 220.005 19.744C220.125 19.696 220.209 19.648 220.257 19.6C220.329 19.528 220.425 19.468 220.545 19.42C220.593 19.468 220.653 19.492 220.725 19.492C220.677 19.564 220.593 19.636 220.473 19.708C220.353 19.78 220.233 19.876 220.113 19.996C219.657 20.284 218.973 20.464 218.061 20.536C217.149 20.608 216.105 20.644 214.929 20.644C213.753 20.644 212.481 20.632 211.113 20.608C209.769 20.56 208.425 20.56 207.081 20.608C205.737 20.656 204.441 20.776 203.193 20.968C201.945 21.136 200.829 21.424 199.845 21.832C199.701 21.88 199.605 21.928 199.557 21.976C199.509 22 199.473 22.048 199.449 22.12C199.449 22.192 199.461 22.3 199.485 22.444C199.509 22.564 199.533 22.744 199.557 22.984C199.653 23.824 199.521 24.52 199.161 25.072C198.825 25.648 198.405 26.116 197.901 26.476C197.421 26.836 196.941 27.1 196.461 27.268C196.005 27.436 195.705 27.52 195.561 27.52C195.177 27.568 194.817 27.532 194.481 27.412C194.145 27.316 193.869 27.16 193.653 26.944C193.413 26.728 193.257 26.464 193.185 26.152C193.113 25.84 193.161 25.492 193.329 25.108C193.593 24.484 193.989 23.98 194.517 23.596C195.021 23.188 195.525 22.876 196.029 22.66C196.533 22.42 196.965 22.24 197.325 22.12C197.685 22 197.841 21.904 197.793 21.832C197.673 21.616 197.493 21.412 197.253 21.22C197.013 21.028 196.761 20.848 196.497 20.68C196.233 20.488 195.981 20.296 195.741 20.104C195.501 19.912 195.321 19.708 195.201 19.492C194.841 18.748 194.949 18.064 195.525 17.44C195.789 17.152 196.125 16.96 196.533 16.864C196.965 16.768 197.349 16.792 197.685 16.936C198.117 17.128 198.225 17.416 198.009 17.8C197.913 17.992 197.829 18.124 197.757 18.196C197.637 18.316 197.553 18.448 197.505 18.592C197.457 18.736 197.337 18.82 197.145 18.844C197.073 18.868 197.025 18.832 197.001 18.736C196.977 18.64 196.965 18.352 196.965 17.872C196.749 18.088 196.617 18.292 196.569 18.484C196.545 18.676 196.569 18.88 196.641 19.096C196.737 19.36 196.869 19.6 197.037 19.816C197.205 20.008 197.385 20.188 197.577 20.356C197.769 20.524 197.961 20.692 198.153 20.86C198.345 21.028 198.501 21.196 198.621 21.364C198.741 21.508 198.897 21.568 199.089 21.544C199.305 21.496 199.509 21.436 199.701 21.364ZM198.261 22.408C198.213 22.36 197.997 22.396 197.613 22.516C197.229 22.636 196.797 22.816 196.317 23.056C195.861 23.296 195.417 23.596 194.985 23.956C194.529 24.316 194.205 24.724 194.013 25.18C193.869 25.54 193.833 25.852 193.905 26.116C193.977 26.38 194.121 26.584 194.337 26.728C194.553 26.896 194.805 26.992 195.093 27.016C195.381 27.064 195.657 27.028 195.921 26.908C196.281 26.74 196.653 26.5 197.037 26.188C197.421 25.9 197.745 25.552 198.009 25.144C198.297 24.736 198.477 24.304 198.549 23.848C198.621 23.368 198.525 22.888 198.261 22.408ZM243.706 19.744C243.802 19.672 243.886 19.612 243.958 19.564C244.03 19.516 244.126 19.468 244.246 19.42C244.294 19.468 244.354 19.492 244.426 19.492C244.378 19.564 244.294 19.636 244.174 19.708C244.054 19.78 243.934 19.876 243.814 19.996C242.854 20.524 241.69 21.256 240.322 22.192C238.954 23.104 237.49 24.064 235.93 25.072C234.394 26.08 232.822 27.04 231.214 27.952C229.606 28.864 228.07 29.56 226.606 30.04C225.166 30.544 223.858 30.748 222.682 30.652C221.506 30.58 220.582 30.04 219.91 29.032C219.478 28.384 219.226 27.58 219.154 26.62C219.058 25.684 219.094 24.676 219.262 23.596C219.43 22.492 219.706 21.352 220.09 20.176C220.45 19 220.858 17.848 221.314 16.72C221.77 15.568 222.238 14.476 222.718 13.444C223.222 12.412 223.678 11.488 224.086 10.672C224.11 10.6 224.134 10.552 224.158 10.528C224.206 10.504 224.206 10.432 224.158 10.312C223.918 10.264 223.714 10.228 223.546 10.204C223.402 10.18 223.174 10.156 222.862 10.132C222.55 10.108 222.118 10.084 221.566 10.06C221.014 10.036 220.222 10 219.19 9.952C219.07 9.952 218.962 9.928 218.866 9.88C218.77 9.832 218.77 9.712 218.866 9.52C218.914 9.4 218.998 9.352 219.118 9.376C219.238 9.376 219.358 9.376 219.478 9.376C219.91 9.376 220.366 9.388 220.846 9.412C221.326 9.436 221.794 9.46 222.25 9.484C222.73 9.508 223.162 9.544 223.546 9.592C223.954 9.616 224.302 9.652 224.59 9.7C224.638 9.652 224.734 9.496 224.878 9.232C225.022 8.944 225.178 8.62 225.346 8.26C225.514 7.9 225.682 7.54 225.85 7.18C226.018 6.796 226.162 6.496 226.282 6.28C226.33 6.184 226.39 6.088 226.462 5.992C226.534 5.896 226.642 5.836 226.786 5.812C226.906 5.764 226.99 5.752 227.038 5.776C227.086 5.776 227.17 5.824 227.29 5.92C227.434 6.04 227.482 6.16 227.434 6.28C227.41 6.4 227.374 6.52 227.326 6.64C227.206 7.072 227.062 7.504 226.894 7.936C226.75 8.344 226.582 8.752 226.39 9.16C226.27 9.376 226.174 9.592 226.102 9.808C226.102 9.784 226.258 9.784 226.57 9.808C226.882 9.832 227.266 9.88 227.722 9.952C228.178 10 228.682 10.06 229.234 10.132C229.81 10.204 230.362 10.276 230.89 10.348C231.418 10.42 231.898 10.492 232.33 10.564C232.762 10.612 233.086 10.648 233.302 10.672L233.878 10.78C233.614 10.828 233.338 10.84 233.05 10.816C232.762 10.768 232.474 10.756 232.186 10.78C231.754 10.804 231.238 10.792 230.638 10.744C230.062 10.696 229.462 10.648 228.838 10.6C228.238 10.552 227.65 10.516 227.074 10.492C226.522 10.468 226.066 10.468 225.706 10.492C225.49 10.924 225.154 11.608 224.698 12.544C224.242 13.48 223.75 14.56 223.222 15.784C222.718 16.984 222.214 18.256 221.71 19.6C221.23 20.944 220.858 22.252 220.594 23.524C220.33 24.772 220.222 25.912 220.27 26.944C220.342 27.976 220.666 28.78 221.242 29.356C221.818 29.932 222.646 30.16 223.726 30.04C224.83 29.944 226.066 29.62 227.434 29.068C228.826 28.516 230.29 27.808 231.826 26.944C233.362 26.08 234.862 25.204 236.326 24.316C237.79 23.404 239.158 22.54 240.43 21.724C241.726 20.884 242.818 20.224 243.706 19.744ZM266.466 19.744C266.562 19.672 266.646 19.612 266.718 19.564C266.79 19.516 266.886 19.468 267.006 19.42C267.054 19.468 267.114 19.492 267.186 19.492C267.138 19.564 267.054 19.636 266.934 19.708C266.814 19.78 266.694 19.876 266.574 19.996C265.614 20.644 264.594 21.16 263.514 21.544C262.434 21.904 261.342 22.18 260.238 22.372C259.134 22.564 258.03 22.684 256.926 22.732C255.822 22.756 254.766 22.732 253.758 22.66C252.75 22.588 251.814 22.48 250.95 22.336C250.086 22.192 249.342 22.048 248.718 21.904C248.454 21.856 248.154 21.784 247.818 21.688C247.482 21.592 247.194 21.508 246.954 21.436C246.618 21.316 246.318 21.268 246.054 21.292C245.79 21.316 245.526 21.556 245.262 22.012C245.142 22.252 244.962 22.432 244.722 22.552C244.506 22.648 244.266 22.696 244.002 22.696C243.378 22.648 243.102 22.324 243.174 21.724C243.27 21.22 243.474 20.74 243.786 20.284C243.978 19.996 243.978 19.696 243.786 19.384C243.546 19 243.402 18.604 243.354 18.196C243.282 17.788 243.27 17.368 243.318 16.936C243.462 15.712 243.882 14.632 244.578 13.696C244.746 13.48 244.926 13.288 245.118 13.12C245.31 12.952 245.538 12.832 245.802 12.76C246.258 12.616 246.654 12.628 246.99 12.796C247.326 12.964 247.578 13.264 247.746 13.696C247.866 14.056 247.926 14.416 247.926 14.776C247.95 15.136 247.926 15.496 247.854 15.856C247.614 17.32 247.158 18.736 246.486 20.104C246.366 20.392 246.318 20.572 246.342 20.644C246.366 20.692 246.51 20.776 246.774 20.896C247.71 21.232 248.946 21.568 250.482 21.904C252.042 22.216 253.722 22.396 255.522 22.444C257.322 22.468 259.17 22.288 261.066 21.904C262.986 21.52 264.786 20.8 266.466 19.744ZM246.738 15.352C246.714 15.136 246.702 14.944 246.702 14.776C246.702 14.584 246.678 14.392 246.63 14.2C246.582 14.08 246.534 13.948 246.486 13.804C246.462 13.636 246.378 13.528 246.234 13.48C246.09 13.432 245.97 13.48 245.874 13.624C245.802 13.744 245.718 13.864 245.622 13.984C245.262 14.488 244.974 15.028 244.758 15.604C244.566 16.156 244.434 16.744 244.362 17.368C244.314 17.608 244.314 17.836 244.362 18.052C244.41 18.268 244.458 18.484 244.506 18.7C244.53 18.772 244.554 18.844 244.578 18.916C244.602 18.988 244.662 19.036 244.758 19.06C245.07 19.084 245.178 19.252 245.082 19.564C245.034 19.684 245.046 19.78 245.118 19.852C245.19 19.9 245.262 19.948 245.334 19.996C245.478 20.044 245.562 20.02 245.586 19.924C245.61 19.828 245.646 19.744 245.694 19.672C245.982 18.976 246.21 18.268 246.378 17.548C246.57 16.828 246.69 16.096 246.738 15.352ZM244.074 22.264C244.338 22.048 244.53 21.832 244.65 21.616C244.794 21.4 244.926 21.196 245.046 21.004C245.118 20.884 245.13 20.788 245.082 20.716C245.034 20.644 244.962 20.584 244.866 20.536C244.674 20.416 244.542 20.476 244.47 20.716C244.374 20.932 244.266 21.16 244.146 21.4C244.05 21.64 244.026 21.928 244.074 22.264Z" fill="#0C120C"/>
</svg>
