<svg width="738" height="199" fill="none" xmlns="http://www.w3.org/2000/svg"><path d="M1 113.9c3.8-3.1 8.3-5.4 13.5-6.7a89.9 89.9 0 0 1 16.3-2.4 173 173 0 0 1 17.8-.4h17.9c5.7-.2 11-.7 16.2-1.4 5.1-1 9.5-2.6 13.3-5V98l-.4-.8c-1.3-2.7-1-5.1 1.1-7.4a7 7 0 0 1 3.7-2c1.5-.4 3-.3 4.1.2 1.6.7 2 1.7 1.2 3.1-.3.7-.6 1.2-.9 1.4l-1 1.5c0 .5-.5.8-1.2.9-.3 0-.4 0-.5-.4-.1-.4-.2-1.4-.2-3.1a5 5 0 0 0-1.4 2.2c0 .7 0 1.4.3 2.2.3 1 .8 1.8 1.4 2.6l2 2 2 1.8c.7.6 1.3 1.2 1.7 1.8.5.5 1 .7 1.7.6l2.2-.6c3.8-1.6 7.9-2.7 12.4-3.3 4.5-.6 9.1-1 13.9-1 4.8-.1 9.5 0 14.2.1l13.3.4 11.4-.1a22.3 22.3 0 0 0 9-2.5 3 3 0 0 1 1-.7l.7.3c-.1.3-.4.5-.9.8l-1.3 1c-1.6 1-4 1.7-7.4 2-3.3.2-7 .4-11.3.4-4.2 0-8.8 0-13.8-.2h-14.5c-4.9.2-9.6.6-14.2 1.3a46.4 46.4 0 0 0-13 3.7c-.2 0-.3.2-.4.5l.1 1.2.3 2c.4 3-.1 5.5-1.4 7.5a19.4 19.4 0 0 1-13 8.8c-1.4.2-2.7 0-4-.4-1.1-.3-2.2-.9-3-1.7a5.8 5.8 0 0 1-1.6-2.8 6 6 0 0 1 .5-3.8c1-2.3 2.4-4 4.2-5.5a42.4 42.4 0 0 1 10.3-5.3c1.2-.4 1.8-.8 1.6-1-.7-1.3-2-2.4-3.7-3.4a27.2 27.2 0 0 1-4.5-3.5l-.3.2c-3.5 2.4-7.8 4-13 4.8-5 1-10.5 1.5-16.4 1.7-6 .2-12 .3-18.4.3-6.2-.1-12.2 0-18 .5-5.7.4-11 1.3-15.9 2.6a26.1 26.1 0 0 0-11.6 6.3c-.2.2-.6.3-1 .3h-1l-.6-.7c0-.3 0-.6.4-.8Zm105.6-6.3c-.1-.1-1 0-2.3.4a32 32 0 0 0-9.6 5.2 11.6 11.6 0 0 0-3.4 4.5 5.3 5.3 0 0 0-.4 3.3c.3 1 .8 1.7 1.6 2.2a5 5 0 0 0 2.7 1c1 .3 2 .1 3-.3a19.7 19.7 0 0 0 7.5-6.4c1-1.5 1.7-3 2-4.7.2-1.7-.1-3.4-1-5.2Zm95.4-.5 8.9 1 11.8.6c4.3 0 8.8 0 13.5-.2a104.8 104.8 0 0 0 28.2-4.7 52.3 52.3 0 0 0 14.3-7c.2.2.4.3.7.3-.2.3-.5.5-1 .8l-1.2 1a73.2 73.2 0 0 1-29.2 9.6 137.3 137.3 0 0 1-27.8 1.2l-11.7-.5c-3.5-.2-6.6-.2-9.2-.1a21.2 21.2 0 0 0-3.1 1.4c-.6.4-1.3.8-2 1-.7.3-1.4.4-2.2.4h-1c-.2 0-.3-.1-.4-.5-.2-.6 0-1 .8-1.4 2.4-1 4.3-2.5 5.7-4.4 1.4-2 2.8-4 4-6.1.4-.7.6-1.2.4-1.6-.4-.2-.8-.1-1.2.3l-.8.9a63.3 63.3 0 0 0-13.6 18 10 10 0 0 0-1 4l-.6 4a236 236 0 0 0-1 26.6l.4 5v1.3c-.2.3-.6.6-1.3.7-1.1.1-1.8-.4-1.8-1.5-.2-2.4-.6-4.7-1.3-7-.8-2.2-1.5-4.5-2-6.8-.9-4-1-8-.4-11.8.6-3.8 1.8-7.5 3.5-11.3.6-1.4 1-3 1.3-5a161.6 161.6 0 0 1 8-28.2 22.3 22.3 0 0 1 2.2-4.2c.2-.3.5-.6.9-.7.5-.2 1-.2 1.3 0 .3.3.4.7.2 1.3l-.3 1-.3 1a114.1 114.1 0 0 0-5.3 18.5l-.7 2.5c.6.1 1 .1 1-.2l.6-.7c2.4-3.2 5-6 7.8-8.5.8-.7 1.7-1.3 2.6-1.8 1-.5 2-.8 3-1 3.5-.4 4.6.9 3.2 4.1a37.8 37.8 0 0 1-4.4 7.4l-.5.5c-.2.1-.2.3-.2.7.2.3.4.3.6.3l.6-.2Zm176.2-9c.3-.3.6-.6.9-.7l1-.6c.2.2.4.3.7.3-.2.3-.5.5-1 .8l-1.2 1a198.6 198.6 0 0 1-67 24.8 73 73 0 0 1-18.6 1c-2.7-.3-4.8-1.1-6.5-2.5a9.4 9.4 0 0 1-3.1-5.9c-.3-1.6 0-4.1.5-7.5.7-3.4 2.4-7.2 5-11.6-2.5 2-4.6 4.2-6.4 6.4a79.5 79.5 0 0 0-5 7.2c-.4.6-.9 1-1.4 1.5-.5.4-1.2.5-2 .4-.6.1-1 0-1.2-.3-.4-.3-.5-.7-.3-1.1.5-2.7 1.3-5.5 2.4-8.5 1-3 2.4-5.4 4.2-7.1 1-.8 1.8-1.1 2.8-1 1 .2 1.9.5 2.8 1.2.5.4.8.5 1 .4a35.3 35.3 0 0 1 2.9-2.2l2.1-2a43.5 43.5 0 0 1 7.8-4.2c.4 0 .9 0 1.3.2 1.4.3 1.7 1 .8 2-.5.6-1 1.3-1.3 2-.4.9-.8 1.4-1.3 1.8-1.7 1-3.4 2.4-5 4.3a35.4 35.4 0 0 0-6.4 12.4c-.6 2.3-.7 4.4-.4 6.3a8.5 8.5 0 0 0 2.3 4.5c1.2 1.3 3 2 5.6 2.2a77 77 0 0 0 18.3-1A194.6 194.6 0 0 0 378.1 98Zm-94.1.7c-1-.3-1.8-.1-2.6.4s-1.6 1.2-2.3 2.2c-.6 1-1 2.1-1.5 3.5-.4 1.3-.7 2.7-.8 4a70.9 70.9 0 0 1 7.1-10.1Zm108.6 30.3c3.2-.3 7.6-1.4 13.3-3.3 5.6-1.9 11.7-4.3 18.2-7.2A292.8 292.8 0 0 0 465 96.9l.6.2c-.1.3-.4.5-.9.8l-1.3 1a248.8 248.8 0 0 1-35.7 19.8c-6.1 3-11.8 5.4-17.2 7.4-5.4 2-9.8 3.3-13.3 3.9-2.1.3-4.2.4-6.2.3-2-.1-3.8-.6-5.3-1.3-1.5-.8-2.7-2-3.5-3.5-.9-1.6-1.2-3.7-1-6.3.2-3.7.8-7.3 1.9-10.8l.5-2.3.5-2.5c.2-1 0-1.9-.4-2.5a4 4 0 0 0-2-1.5l-2.1-.7-2.1-.8c-1.7-.6-2.8-1.3-3.3-2-.4-.9-.4-2.2 0-4 .7-3 1.7-5.9 3-8.6 1.4-2.9 3-5.6 4.7-8.2a23.6 23.6 0 0 1 6.1-5.5c.9-.4 1.8-.7 2.6-.8.9 0 1.7.2 2.5.8.8.6 1.1 1.4 1 2.2 0 .9-.2 1.7-.5 2.5a79 79 0 0 1-4.3 10c-1.6 3.1-3.6 6-6 8.8l-1.8 2.1c.2.5.4.7.7.8.3 0 .6.2.9.4l1.1.5 1.2.4c2 .9 3.1 1.8 3.7 2.9.5 1 .5 2.5 0 4.5a113.7 113.7 0 0 1-3 10c-.5 1.5-.8 3-1 4.6l-.3 3c0 2.1.7 3.8 2 4.9 1.1 1.2 3.1 1.8 5.9 1.7Zm-2.9-56.4c-1 .7-2.1 2-3.3 3.7a44.7 44.7 0 0 0-5.5 12c-.6 2-.8 3.6-.6 4.8 2.1-3.3 4-6.5 5.7-9.7 1.6-3.3 2.9-7 3.7-10.8Zm78.5 42.7v1.6c0 .4 0 .9.2 1.3l.8 1.6 1.6 2.4c-.5.3-1 .3-1.4.2l-1.2-.6a7.6 7.6 0 0 1-3-4.1 36 36 0 0 1-2-13.3l1-13a61.2 61.2 0 0 1 4.2-15.6 108 108 0 0 1 9.6-21.3A142.6 142.6 0 0 1 494 33.3c.8-.8 1.7-1.5 2.7-2.2.8-.5 1.5-.8 2.2-1 .8-.4 1.6-.6 2.6-.6 2.9-.3 4.5 1 4.8 4a24.3 24.3 0 0 1-1 8.3 79.3 79.3 0 0 1-9.7 18.5c-2.9 4.4-6 8.7-9.4 12.9a1539.5 1539.5 0 0 0-14.7 18.2 10.2 10.2 0 0 0-3 5.7l-.7 3.7-.5 3.5c.5-.1.9-.3 1-.6l.6-.9 3.6-4.4a60 60 0 0 1 5.7-5.7c.7-.4 1.5-.4 2.5-.1 1.1.1 1.3.7.6 1.5a185.4 185.4 0 0 1-7.4 10.3 24 24 0 0 0-2.7 4.3c-1 2-1.2 3.4-.8 4.1.5.8 1.8 1.7 3.7 2.6 1.8 1 4.4 1.6 7.8 1.9 3.3.2 7.2.2 11.4-.2a132.6 132.6 0 0 0 29.4-5.8 123 123 0 0 0 32.1-14.4l.6.2c-.1.3-.4.5-.9.8l-1.3 1a154.9 154.9 0 0 1-47.2 17.4c-7.8 1.4-15 2-21.7 2-6.6 0-11.9-1-16-2.9Zm2.6-27.7c.6 0 1-.2 1-.3l.7-.7 7.6-9.5a157.7 157.7 0 0 0 19.3-29.9 51.8 51.8 0 0 0 3.3-10.8c0-1.2 0-2.4-.4-3.7 0-.8-.6-1-1.4-.6l-2 1.9-1.8 2c-5.5 7-10.3 14.2-14.6 21.8A112 112 0 0 0 471 87.8Zm83.4 24.8c-.8-4.5-1-9.2-.6-14.3a91 91 0 0 1 2.4-15.7 122 122 0 0 1 5.1-16 175.9 175.9 0 0 1 22.6-41.2 71 71 0 0 1 4-4.6 33.6 33.6 0 0 1 7.9-6.1c1.2-.6 2.5-.7 4-.6 2.9.1 4.5 1.6 4.8 4.5.2 1.2.2 2.4 0 3.6a78.9 78.9 0 0 1-4.3 13.3 100 100 0 0 1-4.4 9.2A239.2 239.2 0 0 1 560 93.7c-.6.8-1.1 1.7-1.4 2.8l-.5 3a83 83 0 0 0-.1 8.1 35 35 0 0 0 2 10.7l1.3 2.9c2.6 4.5 6.5 7.2 11.5 8 2.8.5 6.1.5 10-.1a159.1 159.1 0 0 0 27.4-8.3 269.7 269.7 0 0 0 46.2-24c.1.2.4.3.6.3-.1.3-.5.5-.9.8l-1.3 1a489.3 489.3 0 0 1-42.1 22.3 149 149 0 0 1-20.3 7.4c-6.5 1.9-12.2 2.7-17.3 2.4-11.8-.7-18.7-7-20.8-18.5Zm4-18.5a186 186 0 0 0 18-23.7c5.3-8.2 10-16 14.2-23.5a118 118 0 0 0 8.3-19.2c.4-1.3.8-2.6 1-4 .3-1.3.4-2.7.3-4.1l-.1-1.8c-.1-.6-.4-1-1-1.3-.6-.3-1-.2-1.5.2l-1.3 1a39.8 39.8 0 0 0-8.9 9.7c-4.8 6.4-9 13.1-12.6 20.2A199.2 199.2 0 0 0 558.2 94ZM701 111.8a139 139 0 0 0 16.7-5.6 103 103 0 0 0 18-9.4c0 .2.3.3.6.3-.2.3-.5.5-1 .8l-1.3 1a91.1 91.1 0 0 1-16 8.5 172.7 172.7 0 0 1-27.8 8.2 145 145 0 0 1-22.2 2c-3.2 0-5.8-.3-8-1a7.8 7.8 0 0 1-5.3-5c-.8-2.4-1.1-5-.9-7.9a28 28 0 0 1 5.9-14.7c1.9-2.3 4.4-3 7.4-2 2 .5 2.6 1.6 2 3.3-.6 3.3-2 6-4.2 8.1a4.9 4.9 0 0 1-4.2 1.6c-1-.1-1.5.3-1.8 1.3a30.5 30.5 0 0 0-1 7.4l.7 3.8c.5 1 1.1 1.9 2 2.4a14 14 0 0 0 6.8 1.4 92.7 92.7 0 0 0 22.6-2c4.1-.8 7.8-1.6 11-2.5Zm-40.3-14.2c1-.7 1.6-1.4 1.8-2.2.4-.8.6-1.8.7-2.7a12 12 0 0 0-1.7 2c-.4.8-.7 1.7-.8 3Z" fill="#FFF1E6"/><path d="m1 113.9.2.4-.3-.4Zm13.5-6.7-.2-.4.2.5Zm16.3-2.4v.5-.5Zm17.8-.4v.5-.5Zm17.9 0v.5-.5Zm16.2-1.4v.5-.5ZM96 98l.2.4h.1L96 98Zm0-.1.4.3.3-.2-.2-.4-.4.3Zm-.4-.8-.5.2.5-.2Zm1.1-7.4.4.3-.4-.3Zm3.7-2-.1-.6v.5Zm4.1.2.2-.5-.2.5Zm1.2 3.1-.4-.2.4.2Zm-.9 1.4-.3-.3.3.3Zm-1 1.5.6.1-.5-.1Zm-1.2.9v-.5h-.1v.5Zm-.5-.4.5-.1h-.5Zm-.2-3.1h.5V90l-.8.8.3.4Zm-1.4 2.2-.5-.2v.1h.5Zm.3 2.2-.5.1.5-.1Zm1.4 2.6-.4.3.4-.3Zm2 2 .3-.4-.3.3Zm2 1.8-.3.3.3-.4Zm1.7 1.8-.4.3.4-.3Zm1.7.6v.5h.1v-.5Zm2.2-.6.2.4-.2-.4Zm12.4-3.3v-.5.5Zm13.9-1V99v.5Zm14.2.1v.5-.5Zm13.3.4v.5-.5Zm11.4-.1v.5-.5Zm8.1-2-.1-.4.1.4Zm1-.5-.4-.4.4.4Zm1-.7.3-.3-.2-.2h-.3l.2.5Zm.6.3.5.3.5-.8h-1v.5Zm-.9.8.3.4-.3-.4Zm-1.3 1 .3.5v-.1l-.3-.4Zm-7.4 2v-.5.5Zm-25 .2v.5-.5Zm-14.6 0v-.5.5Zm-14.2 1.3v.5-.5Zm-12 3.2.2.4-.2-.4Zm-1 .5.2.4h.1l-.3-.4Zm-.4.5-.5-.2v.2h.5Zm.1 1.2h-.4.4Zm.3 2h-.5.5Zm-1.4 7.5-.4-.3.4.3Zm-4.6 5-.3-.4.3.4Zm-5.2 2.9-.1-.5.1.5Zm-3.2.9v-.5.5Zm-4-.4.2-.5-.1.5Zm-3-1.7-.4.4.4-.4Zm-1.6-2.8.5-.2-.5.2Zm.5-3.8.5.2-.5-.2Zm4.2-5.5.3.4-.3-.4Zm5.6-3.4.2.5-.2-.5Zm4.6-1.9-.1-.5.1.5Zm1.7-1-.4.2.4-.2Zm-3.7-3.4-.3.4.3-.4Zm-4.5-3.5.4-.4-.3-.3-.3.3.2.4Zm-.3.2-.3-.4.3.4Zm-13 4.8.2.5-.1-.5ZM67 105.4v.5-.5Zm-18.4.3v.5-.5Zm-18 .5v-.5.5Zm-15.9 2.6-.1-.5.1.5Zm-11.6 6.3-.3-.4.3.3Zm-2 .2-.3.4H1l.2-.4Zm105.5-7.7.5-.2-.1-.1-.4.3Zm-2.3.4-.2-.4.2.4Zm-4.7 2-.2-.5.2.5Zm-5 3.2-.2-.4.3.4Zm-3.3 4.5-.5-.2.5.2Zm-.4 3.3.5-.1-.5.1Zm1.6 2.2.3-.4-.3.4Zm2.7 1v-.4.5Zm3-.3.2.4-.2-.4Zm4-2.6-.3-.4.3.4Zm3.5-3.8-.4-.3.4.3Zm2-4.7.5.1h-.5ZM1.2 114.3c3.9-3.1 8.3-5.3 13.4-6.6l-.3-1a35.8 35.8 0 0 0-13.7 6.8l.6.8Zm13.4-6.6a89.3 89.3 0 0 1 16.3-2.4l-.1-1c-5.7.3-11.2 1.2-16.5 2.5l.3 1Zm16.3-2.4c5.8-.5 11.7-.6 17.7-.4v-1c-6-.2-12 0-17.8.4v1Zm17.7-.4h17.9v-1H48.6v1Zm17.9 0c5.7-.2 11.1-.7 16.3-1.4l-.2-1c-5 .7-10.5 1.2-16.2 1.4v1Zm16.3-1.4c5.2-1 9.6-2.6 13.4-5l-.5-.9c-3.7 2.4-8 4-13 4.9v1Zm13.5-5.1.1-.2-.7-.7v.2l.6.7Zm.2-.8-.5-.8-.8.6.5.8.8-.6ZM96 97a6 6 0 0 1-.6-3.6c.2-1.1.7-2.2 1.7-3.3l-.7-.6a7.3 7.3 0 0 0-2 3.8 7 7 0 0 0 .7 4.1l1-.4Zm1.1-6.9c.9-1 2-1.6 3.4-1.9l-.2-1a7.5 7.5 0 0 0-4 2.3l.8.6Zm3.4-1.9c1.5-.3 2.8-.2 3.8.2l.4-.9a7.2 7.2 0 0 0-4.4-.3l.2 1Zm3.8.2c.8.4 1.1.7 1.2 1 .2.4.1.8-.2 1.5l.9.4c.4-.7.5-1.5.3-2.2-.3-.7-1-1.2-1.8-1.6l-.4 1Zm1 2.5-.8 1.3.7.7 1-1.6-1-.4Zm-.8 1.3c-.5.5-.9 1-1 1.6l.9.3c.1-.4.4-.8.8-1.2l-.7-.7Zm-1 1.6c-.2.3-.4.5-1 .6l.2 1c.8-.1 1.4-.5 1.7-1.3l-1-.3Zm-1 .6c.1 0 .1 0 0 0l-1 .2c.1.2.2.5.5.6.2.2.5.2.8.1l-.4-.9Zm0 0v-3h-1a53 53 0 0 0 0 3.2l1-.2Zm-1-3.4c-.7.8-1.3 1.6-1.5 2.4l1 .3c.1-.6.6-1.2 1.3-2l-.7-.7Zm-1.5 2.5c0 .8 0 1.6.3 2.4l1-.3c-.3-.7-.4-1.4-.3-2h-1Zm.3 2.5c.4 1 .9 1.9 1.5 2.7l.8-.6a9 9 0 0 1-1.4-2.5l-.9.4Zm1.5 2.7 2 2 .7-.7-2-2-.7.7Zm2 2 2.1 1.8.7-.7-2.1-1.8-.7.7Zm2.1 1.8c.7.6 1.2 1.2 1.6 1.8l.8-.6c-.4-.7-1-1.3-1.7-2l-.7.8Zm1.6 1.8c.6.6 1.3 1 2.2.8l-.1-1c-.6 0-1 0-1.3-.5l-.8.7Zm2.2.8a17 17 0 0 0 2.3-.7l-.4-.9c-.6.3-1.3.5-2 .6l.1 1Zm2.3-.7c3.7-1.5 7.8-2.6 12.2-3.2v-1c-4.6.6-8.8 1.7-12.6 3.3l.4 1Zm12.2-3.2c4.5-.6 9.1-1 13.9-1v-1c-4.8 0-9.5.4-14 1l.1 1Zm13.9-1c4.8-.1 9.5 0 14.1.1v-1c-4.6-.2-9.3-.2-14.1-.1v1Zm14.1.1 13.4.4v-1c-4.1 0-8.6-.2-13.3-.4v1Zm13.4.4 11.4-.1v-1c-3.3.1-7.1.2-11.3.1v1Zm11.4-.1c3.4-.3 6.2-1 8.4-2l-.5-1c-2 1-4.6 1.7-8 2v1Zm8.3-2 1.1-.6-.7-.8-.7.5.3.9Zm1.1-.6.9-.6-.4-1-1.2.8.7.8Zm.3-.7c.3.3.7.4 1 .4v-1l-.3-.1-.7.7Zm.6-.4c0 .2-.3.4-.7.7l.5.8c.5-.3.8-.6 1-1l-.8-.5Zm-.7.7c-.5.2-1 .6-1.4 1l.7.8 1.2-1-.5-.8Zm-1.3 1c-1.6 1-4 1.6-7.2 1.9v1a17 17 0 0 0 7.7-2l-.5-.9Zm-7.2 1.9c-3.3.2-7 .4-11.3.4v1c4.3 0 8-.2 11.4-.4l-.1-1Zm-11.3.4c-4.2 0-8.8 0-13.8-.2v1l13.8.2v-1Zm-13.7-.2h-14.6v1H153v-1Zm-14.6 0c-5 .2-9.7.6-14.3 1.3l.2 1c4.6-.7 9.3-1 14-1.3v-1Zm-14.3 1.3c-4.5.7-8.5 1.7-12 3.2l.3 1c3.5-1.5 7.4-2.6 11.9-3.2l-.2-1Zm-12 3.2-1.2.6.7.7.8-.4-.3-1Zm-1.1.5c-.4.2-.5.5-.7.8l1 .4.1-.3-.4-.9Zm-.7 1c0 .3 0 .7.2 1.3l1-.2-.2-1.1h-1Zm.2 1.3.2 1.9 1-.1c0-.9-.2-1.6-.3-2l-1 .2Zm.2 1.9c.3 3-.1 5.3-1.3 7.2l.8.5c1.4-2 1.9-4.7 1.5-7.8h-1Zm-1.4 7.2c-1.1 2-2.6 3.7-4.4 5l.6.7c1.9-1.3 3.5-3 4.7-5.2l-.9-.5Zm-4.4 5a18.9 18.9 0 0 1-5 2.7l.3 1c1.8-.7 3.6-1.6 5.3-3l-.6-.8Zm-5 2.7a27.7 27.7 0 0 1-3.1.9v1c.3 0 .8 0 1.3-.2l2.1-.7-.3-1Zm-3.2.9c-1.3.2-2.5 0-3.7-.4l-.3 1c1.3.4 2.7.6 4.1.4v-1Zm-3.7-.4a7.3 7.3 0 0 1-3-1.6l-.6.8c1 .8 2 1.4 3.3 1.8l.3-1Zm-2.9-1.5a5.3 5.3 0 0 1-1.4-2.7l-1 .3c.3 1.2.9 2.2 1.7 3l.7-.6Zm-1.4-2.7c-.2-1-.1-2 .5-3.4l-1-.4a6.5 6.5 0 0 0-.5 4l1-.2Zm.5-3.4c.9-2.2 2.2-4 4-5.3l-.6-.8a13.7 13.7 0 0 0-4.3 5.7l.9.4Zm4-5.3c1.9-1.4 3.7-2.5 5.5-3.3l-.4-1c-1.9.9-3.8 2-5.7 3.5l.6.8Zm5.5-3.3c1.8-.9 3.3-1.5 4.6-2l-.3-.9a43 43 0 0 0-4.7 2l.4.9Zm4.6-2c.7-.1 1.2-.4 1.5-.6.2 0 .3-.2.4-.4l.2-.3-.1-.4-.9.5a.3.3 0 0 1 0-.3h-.1l-1.3.6.3 1Zm2-1.7c-.9-1.3-2.2-2.5-4-3.5l-.5.8c1.7 1 2.9 2.1 3.6 3.2l.9-.5Zm-4-3.5a26.7 26.7 0 0 1-4.3-3.5l-.7.7c1.2 1.3 2.7 2.5 4.5 3.6l.5-.8Zm-5-3.5-.3.2.5.8.4-.2-.5-.8Zm-.3.2a32 32 0 0 1-12.7 4.7l.2 1a33 33 0 0 0 13-4.9l-.5-.8Zm-12.7 4.7c-5 1-10.6 1.5-16.4 1.7v1c6-.2 11.4-.8 16.6-1.7l-.2-1ZM67 105c-6 .2-12 .3-18.4.3v1c6.4 0 12.5-.1 18.4-.3v-1Zm-18.3.3c-6.3-.1-12.3 0-18.2.5l.1 1c5.8-.4 11.8-.6 18-.5v-1Zm-18.2.5c-5.7.4-11 1.3-16 2.6l.3 1a86 86 0 0 1 15.8-2.6v-1Zm-16 2.6a26.6 26.6 0 0 0-11.7 6.4l.7.7c2.9-2.8 6.6-4.8 11.3-6.1l-.2-1Zm-11.7 6.4-.7.2v1c.5 0 1-.1 1.4-.5l-.7-.7Zm-.7.2h-1l-.2.9 1.2.1v-1Zm-.8 0a.8.8 0 0 1-.3-.4l-1 .3c.2.4.4.7.8 1l.5-1Zm-.3-.4.2-.2-.6-.8c-.4.3-.7.7-.5 1.3l1-.3Zm106-7.2a.9.9 0 0 0-.6-.2h-.6c-.4 0-1 .2-1.7.5l.3 1a12.6 12.6 0 0 1 2-.5l-.1-.1.7-.7Zm-2.9.3c-1.4.4-3 1-4.7 2l.4.8c1.7-.8 3.3-1.5 4.6-1.9l-.3-1Zm-4.7 2c-1.7.8-3.4 2-5 3.2l.6.8c1.6-1.3 3.2-2.3 4.8-3.2l-.4-.9Zm-5 3.2a12.1 12.1 0 0 0-3.6 4.7l1 .3c.6-1.5 1.7-3 3.2-4.2l-.7-.8Zm-3.6 4.7a5.8 5.8 0 0 0-.4 3.7l1-.3c-.2-.8-.1-1.8.3-3l-.9-.4Zm-.4 3.7c.3 1 .9 1.9 1.8 2.5l.5-.9c-.6-.4-1-1-1.3-1.9l-1 .3Zm1.7 2.4c1 .7 2 1 3 1.2l.1-1c-1-.1-1.7-.4-2.4-1l-.7.8Zm3 1.2c1.1.2 2.2 0 3.3-.5l-.4-.9c-.9.4-1.8.5-2.7.4l-.2 1Zm3.3-.5c1.3-.6 2.7-1.5 4.1-2.6l-.6-.8c-1.4 1.1-2.7 2-4 2.5l.5 1Zm4.1-2.6a15 15 0 0 0 3.6-4l-.8-.5a14 14 0 0 1-3.4 3.7l.6.8Zm3.6-3.9c1.1-1.5 1.8-3.2 2-4.9l-1-.1c-.2 1.5-.8 3-1.8 4.4l.8.6Zm2-4.9c.3-1.8 0-3.7-1-5.5l-1 .5c1 1.6 1.3 3.3 1 4.9l1 .1Zm94-5.8v-.5.5Zm8.8 1v.4-.5Zm11.8.6v.5-.5Zm13.5-.2v.5-.5Zm14.3-1.4v.5-.5Zm14-3.2v.4-.4Zm12.3-5.9.2.4-.2-.4Zm2-1.2.3-.3-.3-.2h-.3l.2.5Zm.6.3.4.3.5-.8h-1v.5Zm-1 .8.3.4-.2-.4Zm-1.2 1 .2.5.1-.1-.3-.4Zm-14.5 6.4.2.5-.2-.5Zm-14.7 3.3v-.5.5Zm-14.4 1.3v.4-.5Zm-13.4-.2v.5-.5Zm-11.7-.5v.5-.5Zm-9.2-.1v-.5.5Zm-1.7.6.2.5-.2-.5Zm-1.4.8-.3-.4.3.4Zm-2 1-.2-.4.2.4Zm-3.6 0 .5-.2-.5.1Zm.8-1.5-.2-.5.2.5Zm5.7-4.4-.4-.3.4.3Zm4-6.1-.4-.3.4.3Zm.4-1.6.5-.2-.1-.2h-.2l-.2.4Zm-1.2.3-.3-.4.3.4Zm-.8.9.4.3-.4-.3ZM186 117l-.5-.2.5.2Zm-1 4h.4-.4Zm-.6 4-.5-.1h.5Zm-1 26.6h-.5.5Zm.4 5-.5.1h.5Zm0 1.3.4.2v-.1l-.4-.2Zm-1.3.7v.5h.1l-.1-.5Zm-1.8-1.5h-.5.5Zm-1.3-7h.4-.4Zm-2-6.8h-.5v.1l.5-.1Zm-.4-11.8-.5-.1h.5Zm3.5-11.3.5.2-.5-.3Zm1.3-5h-.5.5Zm2.9-12.5.5.2-.5-.2Zm3.9-12.3-.5-.2.5.2Zm1.3-3.4.5.2-.5-.2Zm1.6-3.3.4.3-.4-.3Zm.5-.9-.4-.3.4.3Zm.9-.7-.2-.5.2.5Zm1.3 0 .3-.3-.3.4Zm.2 1.3-.4-.2.4.2Zm-.3 1-.5-.2.5.2Zm-.3 1 .5.2-.5-.2Zm-3 9.3.5.1-.5-.1Zm-2.3 9.2.4.1-.4-.1Zm-.7 2.5-.5-.2v.5l.4.2.1-.5Zm1-.2-.4-.2.5.2Zm.6-.7.3.3-.3-.3ZM197 97l-.3-.4.3.4Zm2.6-1.8-.3-.4.3.4Zm3-1v.6-.5Zm3.2 4.1-.4-.2.4.2Zm-2 4-.4-.4.5.3Zm-2.4 3.4.3.4-.3-.4Zm-.5.5.2.5.1-.1-.3-.4Zm-.2.7-.4.1v.2l.4-.3Zm.6.3-.2-.5.2.5Zm.6.3 8.8 1 .1-1-8.8-1-.1 1Zm8.8 1 11.9.6v-1l-11.8-.7v1Zm11.9.6c4.3 0 8.8 0 13.5-.2v-1c-4.7.2-9.2.3-13.5.2v1Zm13.5-.2c4.8-.2 9.6-.7 14.4-1.4l-.2-1c-4.7.7-9.5 1.2-14.2 1.5v1Zm14.4-1.4c4.8-.8 9.4-1.9 14-3.3l-.3-1c-4.5 1.5-9.1 2.5-13.9 3.3l.2 1Zm14-3.3c4.5-1.4 8.7-3.4 12.4-5.9l-.5-.8a51.8 51.8 0 0 1-12.2 5.8l.3 1Zm12.5-5.9.9-.6-.6-.8-1 .6.7.8Zm.9-.6.9-.5-.4-1-1.1.7.6.8Zm.4-.6c.2.3.6.4 1 .4v-1l-.3-.1-.7.7Zm.5-.4c0 .2-.3.4-.7.7l.5.8c.5-.3.8-.6 1-1l-.8-.5Zm-.7.7c-.5.2-1 .6-1.4 1l.7.8 1.2-1-.5-.8Zm-1.3 1a72.8 72.8 0 0 1-14.3 6.3l.3 1c5-1.6 9.8-3.7 14.5-6.4l-.5-.9Zm-14.3 6.3a96.5 96.5 0 0 1-14.6 3.3l.1 1c5-.8 9.9-1.8 14.8-3.3l-.3-1Zm-14.6 3.3c-4.9.6-9.7 1-14.4 1.3v1c4.8-.2 9.6-.7 14.5-1.4l-.1-1Zm-14.4 1.3c-4.7 0-9.1 0-13.4-.2v1c4.3.2 8.7.2 13.4.1v-1Zm-13.4-.2-11.7-.5v1l11.7.5v-1Zm-11.7-.5c-3.5-.2-6.6-.2-9.2-.1v1c2.6-.1 5.6 0 9.2.1v-1Zm-9.3-.1c-.7 0-1.3.3-1.9.7l.6.8c.4-.3 1-.5 1.5-.5l-.2-1Zm-1.8.7c-.6.2-1 .5-1.5.8l.5.8 1.4-.7-.4-1Zm-1.5.8a8 8 0 0 1-1.9 1l.4 1a9 9 0 0 0 2-1.2l-.5-.8Zm-1.9 1c-.6.2-1.3.3-2 .3v1c.8 0 1.6-.1 2.4-.4l-.4-1Zm-2 .3H191v1H192v-1Zm-1 0h.1v-.1l-1 .2c0 .3.1.5.3.7l.7.2v-1Zm0-.1v-.5l.6-.4-.5-.9a2 2 0 0 0-.9.9c-.2.3-.2.7-.1 1.1l1-.2Zm.6-.9a14 14 0 0 0 5.9-4.5l-.8-.6a13 13 0 0 1-5.5 4.2l.4 1Zm5.9-4.5c1.5-2 2.8-4.1 4-6.2l-.8-.5a67 67 0 0 1-4 6l.8.7Zm4-6.2c.5-.6.7-1.3.5-2l-1 .4c.1.2 0 .5-.3 1l.8.6Zm.2-2.3h-1l-.7.4.7.7.3-.2h.3l.4-.9Zm-1.7.4-.9 1 .9.5c.1-.2.3-.5.7-.8l-.7-.7Zm-.8.9a63.8 63.8 0 0 0-13.8 18.2l1 .5c3.4-6.8 7.9-12.8 13.5-18l-.7-.7Zm-13.8 18.2c-.6 1.3-1 2.6-1 4.1h1c0-1.3.4-2.5 1-3.6l-1-.5Zm-1 4-.6 4 1 .2.5-4-1-.1Zm-.6 4.1-.9 13.4h1c.2-4.3.5-8.8 1-13.3h-1Zm-.9 13.4c-.2 4.5-.2 8.9-.1 13.3h1l.1-13.2h-1Zm-.1 13.3.4 5.1h1l-.4-5.1h-1Zm.4 5.2v1l1 .2v-1.4l-1 .2Zm0 .8c0 .2-.3.4-1 .5l.3 1c.7-.2 1.4-.5 1.6-1l-.9-.5Zm-.9.5c-.4 0-.7 0-.9-.2-.2-.1-.3-.4-.3-.9l-1 .1c0 .6.2 1.2.7 1.6.4.4 1 .5 1.6.4v-1Zm-1.2-1c-.2-2.4-.7-4.8-1.4-7l-1 .2c.8 2.2 1.2 4.5 1.4 6.8h1Zm-1.4-7a62 62 0 0 1-1.9-7l-1 .3c.5 2.4 1.2 4.7 2 7l1-.4Zm-1.9-7c-.9-4-1-7.8-.4-11.6l-1-.1c-.6 3.9-.5 7.9.4 12l1-.2Zm-.4-11.6c.6-3.6 1.8-7.4 3.5-11.1l-1-.5c-1.7 3.9-2.9 7.7-3.5 11.5l1 .1Zm3.5-11.1c.6-1.5 1-3.2 1.3-5.1l-1-.2c-.2 2-.6 3.5-1.2 4.8l.9.5Zm1.3-5.1c.8-4.1 1.8-8.3 2.9-12.4l-1-.3c-1.1 4.2-2 8.3-2.9 12.5l1 .2Zm2.9-12.4c1.1-4.2 2.4-8.3 3.9-12.3l-1-.4c-1.5 4.1-2.8 8.2-3.9 12.4l1 .3Zm3.9-12.3 1.3-3.4-1-.4-1.3 3.4 1 .4Zm1.3-3.4a22 22 0 0 1 1.5-3.2l-.9-.5c-.6 1-1.1 2.2-1.6 3.3l1 .4Zm1.5-3.2.5-.9-.8-.5a9 9 0 0 0-.6 1l.9.4Zm.5-.9c.2-.3.4-.5.7-.6l-.4-.9a3 3 0 0 0-1.1 1l.8.5Zm.6-.6h.9l.6-.7c-.5-.4-1.1-.4-1.8-.2l.3 1Zm.9 0 .1.3v.4l1 .3v-1c0-.3-.3-.5-.5-.7l-.6.8Zm0 .7c0 .3-.1.7-.3 1l.9.4.4-1.1-1-.3Zm-.3 1-.3 1.1 1 .3.2-1-1-.3Zm-.3 1-3 9.3 1 .3c.8-3.1 1.8-6.2 3-9.2l-1-.3Zm-3 9.3L188 104l1 .2a159 159 0 0 1 2.3-9.2l-1-.3ZM188 104l-.7 2.4 1 .3.6-2.5-1-.2Zm-.3 3 .9.2c.3 0 .6-.2.7-.6l-1-.3.2-.1-.5-.1-.3 1Zm1.6-.3.4-.7-.7-.7-.6 1 .9.4Zm.5-.7c2.4-3.2 5-6 7.7-8.4l-.7-.8a56.9 56.9 0 0 0-7.8 8.6l.8.6Zm7.7-8.4c.8-.7 1.7-1.3 2.5-1.8l-.5-.8c-.9.5-1.8 1.1-2.6 1.8l.6.8Zm2.5-1.8a7 7 0 0 1 2.8-.8v-1a8 8 0 0 0-3.3 1l.5.8Zm2.8-.8c.9-.2 1.6-.2 2 0 .6 0 .9.2 1 .4.2.2.3.5.3 1a6 6 0 0 1-.5 2l.9.3a7 7 0 0 0 .6-2.2c0-.7-.1-1.3-.5-1.7-.3-.5-.9-.7-1.5-.9h-2.4l.1 1Zm2.7 3.3a20 20 0 0 1-1.9 3.8l.9.6a21 21 0 0 0 2-4l-1-.4Zm-1.9 3.8c-.6 1.2-1.5 2.3-2.4 3.5l.8.6c1-1.2 1.8-2.4 2.5-3.5l-.9-.6Zm-2.4 3.5v.1h-.1v.1h-.1v.1h-.1v.1h-.1l.6.8h.1v-.1h.1v-.1h.1v-.1h.1v-.1h.1v-.1l-.7-.7Zm-.3.4c-.3.1-.4.3-.5.6v.6l1-.2v-.2h-.1l-.4-.8Zm-.4 1.4.5.4h.7l-.5-.9h.2l-.9.5Zm1.1.4h.5v-1h-.8l.3 1ZM378.2 98l.2.4-.2-.4Zm.9-.6-.3-.4.3.4Zm1-.6.4-.3-.3-.2h-.3l.2.5Zm.7.3.4.3.5-.8h-1v.5Zm-1 .8.3.4-.2-.4Zm-1.2 1 .2.5.1-.1-.3-.4Zm-21.9 11.3-.2-.4.2.4Zm-23.2 8.5-.2-.5.2.5Zm-22 5v-.4h-.1v.5Zm-18.5 1v-.5.5Zm-6.5-2.5-.3.4.3-.4Zm-3.1-5.9-.5.1h.5Zm.5-7.5h-.5.5Zm5-11.6.4.3-.8-.6.4.3Zm-6.4 6.4-.4-.3.4.3Zm-5 7.2-.5-.3.4.3Zm-1.4 1.5.3.4-.3-.4Zm-2 .4v-.5h-.1v.5Zm-1.2-.3-.4.4.4-.3Zm-.3-1.1.5.2v-.1l-.5-.1Zm2.4-8.5.4.2-.4-.2Zm4.2-7.1-.3-.4.3.4Zm2.8-1-.1.6v-.5Zm2.8 1.2.3-.4-.3.4Zm1 .4-.2-.4.1.4Zm.7-.5-.3-.4.3.4Zm2.1-1.7.3.4-.3-.4Zm2.2-2-.3-.3.3.4Zm3.1-2 .3.4-.3-.4Zm3.5-1.7-.1-.5.1.5Zm1.2-.4v-.5h-.1l.1.5Zm1.3.1-.2.5h.1l.1-.5Zm.8 2 .4.3-.4-.3Zm-1.3 2 .5.3-.5-.2ZM298 94l.3.4-.3-.4Zm-5 4.3-.3-.4.4.4Zm-3.8 6 .4.2-.4-.3Zm-2.6 6.4-.5-.1.5.1Zm-.4 6.3h-.5.5Zm2.3 4.5.4-.3-.4.3Zm5.6 2.2v-.5.5Zm18.3-1 .1.5v-.5Zm21.9-5.2-.2-.5.2.5ZM357 109l-.2-.5.2.5Zm-73-10.3.3.3.5-.6-.7-.2-.1.5Zm-2.6.4-.3-.4.3.4Zm-2.3 2.2-.4-.3.4.3Zm-1.5 3.5.5.2-.5-.2Zm-.8 4h-.5v.9l.7-.4-.2-.5Zm1-1.3.5.3-.5-.3Zm1.9-2.8.4.3-.4-.3Zm2-3.1-.4-.3.4.3Zm96.7-3.3.9-.6-.6-.8-1 .6.7.8Zm.9-.6 1-.5-.5-1-1 .7.5.8Zm.4-.6c.2.3.6.4 1 .4v-1l-.3-.1-.7.7Zm.6-.4-.8.7.5.8c.5-.3.9-.6 1-1l-.7-.5Zm-.8.7c-.5.2-1 .6-1.4 1l.7.8 1.2-1-.5-.8Zm-1.3 1c-6.7 4.2-14 8-21.8 11.3l.4.9a173 173 0 0 0 22-11.3l-.6-.9Zm-21.8 11.3c-7.8 3.4-15.5 6.2-23.2 8.4l.3 1c7.7-2.3 15.5-5.1 23.3-8.5l-.4-1Zm-23.2 8.4c-7.6 2.3-14.9 4-21.9 5l.2 1c7-1 14.4-2.7 22-5l-.3-1Zm-21.9 5c-7 1.2-13 1.5-18.3 1l-.1 1c5.3.5 11.5.2 18.6-1l-.2-1Zm-18.3 1a11 11 0 0 1-6.3-2.4l-.6.8a12 12 0 0 0 6.8 2.6v-1Zm-6.3-2.4a9 9 0 0 1-2.9-5.5l-1 .1a10 10 0 0 0 3.3 6.2l.6-.8Zm-2.9-5.5c-.2-1.6 0-4 .5-7.4l-1-.2c-.6 3.4-.8 6-.5 7.7l1-.1Zm.5-7.4c.7-3.3 2.3-7.1 4.9-11.4l-.9-.5a38.6 38.6 0 0 0-5 11.7l1 .2Zm4.1-12c-2.4 2-4.6 4.1-6.4 6.4l.8.6c1.8-2.2 3.9-4.3 6.3-6.3l-.7-.7Zm-6.4 6.4a80.3 80.3 0 0 0-5.1 7.2l.8.5a79 79 0 0 1 5-7l-.7-.7Zm-5.1 7.2c-.3.6-.7 1-1.2 1.4l.6.8c.6-.5 1-1 1.5-1.7l-1-.5Zm-1.2 1.4c-.3.3-1 .4-1.7.3l-.1 1c1 .1 1.8 0 2.4-.5l-.6-.8Zm-1.8.3-.8-.1-.7.7c.4.4 1 .5 1.6.4l-.1-1Zm-.8-.1a.6.6 0 0 1-.2-.3v-.3l-.9-.4v1l.4.7.7-.7Zm0-.7c.4-2.7 1.2-5.5 2.2-8.4l-1-.3c-1 3-1.8 5.8-2.3 8.5l1 .2Zm2.2-8.4c1-3 2.4-5.3 4.2-7l-.7-.7a18 18 0 0 0-4.4 7.4l1 .3Zm4.2-7c.8-.6 1.5-.9 2.3-.7l.2-1c-1.2-.2-2.2.1-3.2 1l.7.8Zm2.3-.7c.9 0 1.7.4 2.6 1l.6-.8c-1-.7-2-1.1-3-1.2l-.2 1Zm2.6 1 .7.5c.2 0 .5.1.8 0l-.5-1c.1 0 .2 0 0 0 0 0-.2 0-.4-.3l-.6.8Zm1.4.5c.4-.1.7-.3 1-.6l-.7-.7-.6.4.3.9Zm1-.6 2-1.7-.6-.8-2.1 1.7.7.8Zm2-1.7 2.3-2-.7-.7a23 23 0 0 1-2.2 2l.6.7Zm2.2-2c1-.8 2-1.5 3-2l-.4-.9c-1 .6-2.1 1.3-3.2 2.2l.6.8Zm3-2 3.5-1.6-.4-1-3.5 1.7.5 1Zm3.5-1.6 1.1-.4-.2-1-1.2.4.3 1Zm1.1-.4 1 .1.4-1c-.5-.1-1-.2-1.6 0l.2.9Zm1.1.1.7.2.2.2s0 .3-.4.8l.8.6c.4-.5.8-1.2.5-1.8-.1-.3-.3-.5-.6-.6l-1-.4-.2 1Zm.5 1.2A9 9 0 0 0 299 92l1 .4a8 8 0 0 1 1.2-2l-.8-.6ZM299 92c-.3.7-.7 1.2-1 1.4l.5.9c.6-.4 1-1 1.5-2l-1-.3Zm-1 1.4a21 21 0 0 0-5.1 4.4l.7.7a20 20 0 0 1 4.9-4.2l-.6-.9Zm-5.1 4.4a36 36 0 0 0-4 6.1l.9.5a35 35 0 0 1 3.8-6l-.7-.6Zm-4 6c-1.1 2.2-2 4.4-2.6 6.7l1 .3c.5-2.3 1.4-4.4 2.5-6.4l-.9-.5Zm-2.6 6.7c-.6 2.3-.7 4.5-.4 6.4l1-.1c-.3-1.8-.2-3.9.3-6l-1-.3Zm-.4 6.5a9 9 0 0 0 2.4 4.8l.8-.7a8 8 0 0 1-2.2-4.3l-1 .2Zm2.4 4.8c1.4 1.4 3.4 2.2 6 2.3v-1c-2.4-.1-4.1-.8-5.2-2l-.8.7Zm6 2.3c5.2.5 11.4.1 18.4-1l-.2-1c-7 1.1-13 1.5-18.2 1v1Zm18.4-1c7-1.1 14.4-2.9 22-5.2l-.4-1a158 158 0 0 1-21.8 5.2l.2 1Zm21.9-5.2a195 195 0 0 0 22.8-8.4l-.4-.9c-7.5 3.3-15 6-22.7 8.3l.3 1Zm22.8-8.4a151 151 0 0 0 21.1-11l-.5-.9a150 150 0 0 1-21 11l.4 1Zm-73.1-11.2c-1-.3-2-.1-3 .5l.5.8c.8-.4 1.5-.5 2.2-.3l.3-1Zm-3 .5c-.9.5-1.6 1.3-2.4 2.3l.8.6c.7-1 1.4-1.6 2.1-2l-.5-1Zm-2.4 2.3c-.6 1-1.2 2.2-1.6 3.7l1 .3c.4-1.4.9-2.5 1.5-3.4l-.9-.6Zm-1.6 3.7c-.4 1.3-.7 2.7-.8 4.1h1c0-1.3.3-2.6.8-3.8l-1-.3Zm0 4.6.2-.2.3-.3.7-1-.9-.5a13.1 13.1 0 0 1-.8 1c0 .1 0 .1 0 0l.4 1Zm1.2-1.5c.5-.9 1-1.8 1.8-2.8l-.9-.6-1.8 2.9.9.5Zm1.8-2.8v-.1l.1-.1v-.1l.1-.1.1-.1v-.1l.1-.1.1-.1v-.1l.1-.1v-.1l.2-.1v-.2l.2-.1v-.2h.1v-.1h.1v-.1l.1-.1.1-.2v-.1h.1v-.1h.1v-.2h.1v-.1h.1v-.1l.1-.1v-.1h.1v-.1l-.8-.6v.1h-.1v.1l-.1.1v.1h-.1v.2h-.1v.2h-.2v.2l-.2.2v.1l-.1.1-.1.1v.1h-.1v.1l-.1.1v.1h-.1v.1l-.1.1v.1h-.1v.1l-.1.1v.1h-.1v.2h-.1v.1c-.1 0 0 0 0 0h-.1c0 .1 0 0 0 0v.1c0 .1 0 0 0 0v.1h-.1c0 .1 0 0 0 0v.1l.8.6Zm2-3.2 2.2-2.8-.7-.6c-.7.8-1.5 1.7-2.3 2.9l.9.5Zm110.5 27.2v.5-.5Zm31.5-10.5-.2-.5.2.5Zm20.1-9.8.2.5-.2-.5ZM463 98l.3.4-.3-.4Zm2-1.2.3-.3-.2-.2h-.3l.2.5Zm.6.3.4.3.6-.8h-1v.5Zm-.9.8.3.4-.3-.4Zm-1.3 1 .3.4-.3-.4Zm-17.1 10.4.2.5-.2-.5Zm-18.6 9.4-.2-.5.2.5Zm-17.2 7.4.2.5-.2-.5Zm-13.3 3.9.1.5v-.5Zm-6.2.3v-.5.5Zm-5.3-1.3-.3.4.3-.4Zm-3.5-3.5.4-.3-.4.3Zm-1-6.3h-.6.5Zm1.9-10.8.5.2-.5-.2Zm.5-2.3-.5-.1h.5Zm.5-2.5.5.1h-.5Zm-.4-2.5-.4.3.4-.3Zm-2-1.5.3-.5-.2.5Zm-2.1-.7-.2.5.2-.5Zm-2.1-.8.2-.4-.2.5Zm-3.3-2-.4.2.4-.2Zm0-4 .5.2-.5-.1Zm3-8.6-.4-.3.4.3Zm4.7-8.2-.4-.3.4.3Zm4.2-4.2-.3-.4.3.4Zm.9-.6.3.4-.3-.4Zm1-.7.2.5-.2-.5Zm5 0-.2.4.3-.4Zm.6 4.7.5.2-.5-.2Zm-4.3 10 .5.2-.5-.2Zm-6 8.8.4.4-.4-.4Zm-1.8 2.1-.4-.3-.2.2.2.3.4-.2Zm.7.8-.2.5.2-.5Zm.9.4-.3.4.3-.4Zm1.1.5-.2.5h.1l.1-.5Zm1.2.4.2-.5-.2.5Zm3.7 2.9-.5.2.5-.2Zm0 4.5.4.1h-.4Zm-.8 2.7-.5-.1.5.1Zm-1 2.8-.4-.2.5.2Zm-1.2 4.5.4.2-.4-.2Zm-1 4.6.5.1-.4-.1Zm-.3 3h-.5.5Zm2 4.9.3-.4-.4.4Zm3-54.7h.5l.3-1.1-1 .7.2.4Zm-3.3 3.7-.5-.2.5.2Zm-3.2 5.8.5.2-.5-.2Zm-2.3 6.2.5.1-.5-.1Zm-.6 4.8h-.5l.1 1.4.8-1.1-.4-.3Zm5.7-9.7.4.2-.4-.2Zm6.6 46c3.3-.2 7.8-1.3 13.4-3.2l-.3-1c-5.6 2-10 3-13.1 3.3v1Zm13.4-3.2a199 199 0 0 0 18.3-7.3l-.4-.9a198 198 0 0 1-18.2 7.3l.3 1Zm18.3-7.3c6.6-3 13.3-6.2 20.1-9.7l-.4-1c-6.9 3.6-13.6 6.9-20.1 9.8l.4 1Zm20.1-9.7c6.9-3.7 13.2-7.3 18.8-10.9l-.5-.8c-5.7 3.5-11.9 7.1-18.7 10.8l.4.9Zm18.8-10.9 1-.6-.6-.8-1 .6.6.8Zm1-.6c.1-.2.5-.3.9-.5l-.4-1-1.1.7.5.8Zm.3-.6c.3.3.6.4 1 .4v-1l-.3-.1-.7.7Zm.6-.4-.7.7.5.8c.4-.3.8-.6 1-1l-.8-.5Zm-.7.7c-.5.2-1 .6-1.4 1l.7.8 1.2-1-.5-.8Zm-1.4 1c-5.1 3.5-10.9 7-17 10.4l.4.9c6.3-3.5 12-7 17.2-10.5l-.6-.8Zm-17 10.4c-6.3 3.4-12.5 6.5-18.6 9.3l.4 1c6.1-3 12.4-6 18.6-9.4l-.5-1Zm-18.6 9.3c-6.1 3-11.8 5.4-17.2 7.4l.4 1c5.4-2 11.1-4.5 17.2-7.5l-.4-.9Zm-17.2 7.4c-5.3 2-9.7 3.3-13.1 4l.1.9c3.5-.6 8-2 13.4-4l-.4-.9Zm-13.1 4a25 25 0 0 1-6.1.2l-.1 1c2 .1 4.1 0 6.3-.3l-.1-1Zm-6.2.2c-1.9-.1-3.6-.5-5.1-1.3l-.4 1c1.6.7 3.4 1.2 5.5 1.3v-1Zm-5-1.3a8 8 0 0 1-3.4-3.3l-.9.5a9 9 0 0 0 3.7 3.7l.5-.9Zm-3.4-3.3c-.8-1.4-1.1-3.4-1-6h-1c-.1 2.6.2 4.8 1.1 6.5l1-.5Zm-1-6a49 49 0 0 1 2-10.6l-1-.3a50 50 0 0 0-2 10.9h1Zm2-10.7v-.5h.1v-.4h.1v-.5l.1-.2V106.6l.1-.1V106.2l-.9-.2v.4h-.1v.4l-.1.1v.4l-.1.1V107.7l-.1.2V108.2l-.1.1 1 .2Zm.5-2.3.5-2.5-1-.2-.5 2.5 1 .2Zm.5-2.5c.2-1.1 0-2.1-.5-2.9l-.8.6c.4.5.5 1.2.3 2.1l1 .2Zm-.4-2.8A4.6 4.6 0 0 0 382 99l-.4 1c.9.3 1.4.8 1.7 1.3l.9-.5ZM382 99a17 17 0 0 0-2.3-.7l-.2 1 2.1.6.4-.9Zm-2.3-.6-2-.8-.4 1 2 .7.4-1Zm-2-.8c-1.8-.6-2.7-1.3-3-1.9l-.9.5c.5 1 1.8 1.7 3.5 2.3l.4-1Zm-3-1.9c-.4-.7-.4-1.8 0-3.5l-1-.3c-.4 1.8-.4 3.3 0 4.3l1-.5Zm0-3.5c.7-3 1.7-5.9 3-8.6l-1-.5a43.6 43.6 0 0 0-3 8.9l1 .2Zm3-8.6c1.4-2.9 3-5.6 4.6-8.2l-.8-.5a69.7 69.7 0 0 0-4.7 8.2l.9.5Zm4.6-8.1c1.2-1.6 2.6-3 4-4.1l-.5-.8a24 24 0 0 0-4.3 4.3l.8.6Zm4-4 1-.7-.6-.9-1 .7.7.8Zm1-.7c.3-.3.6-.5 1-.6l-.5-1-1.1.8.6.8Zm1-.6a7 7 0 0 1 2.4-.8l-.1-1a8 8 0 0 0-2.8.9l.4.9Zm2.4-.8c.7 0 1.4.2 2 .7l.7-.8c-.9-.7-1.8-1-2.8-.9v1Zm2 .7c.7.5 1 1.1 1 1.8h1c0-1-.4-1.9-1.3-2.6l-.6.8Zm1 1.8c-.2.8-.3 1.6-.6 2.3l1 .3c.3-.8.4-1.6.5-2.5l-1-.1Zm-.6 2.3a78.6 78.6 0 0 1-4.2 10l.9.4c1.6-3.2 3-6.6 4.3-10l-1-.4Zm-4.2 10a49 49 0 0 1-6 8.7l.8.7a50 50 0 0 0 6-9l-.8-.4Zm-6 8.7-1.8 2 .8.7 1.8-2-.7-.7Zm-1.8 2.6c.1.5.4 1 1 1l.2-.9s-.2 0-.3-.5l-1 .4Zm1 1 .7.4.6-.8-1.1-.5-.3 1Zm.8.5 1.1.5.5-1-1.2-.5-.4 1Zm1.2.5c.3 0 .7.2 1.1.4l.4-1-1.2-.4-.3 1Zm1.1.4c1.9.8 3 1.7 3.4 2.6l1-.5c-.7-1.2-2-2.2-4-3l-.4.9Zm3.4 2.6c.4.9.5 2.2 0 4.2l1 .2c.5-2 .5-3.7 0-4.9l-1 .5Zm0 4.2-.8 2.7 1 .3.7-2.8-1-.2Zm-.8 2.7-.9 2.7 1 .3.9-2.7-1-.3Zm-1 2.7-1.2 4.6 1 .3 1.3-4.6-1-.3Zm-1.2 4.6a27 27 0 0 0-1 4.6l1 .1c.2-1.5.5-3 1-4.4l-1-.3Zm-1 4.5c-.2 1-.3 2-.3 3.2h1c0-1 0-2 .3-2.9l-1-.3Zm-.3 3.2c0 2.2.7 4 2 5.3l.8-.8c-1.1-1-1.7-2.5-1.8-4.6h-1Zm2 5.3c1.4 1.3 3.6 1.9 6.4 1.8v-1c-2.7 0-4.6-.5-5.6-1.6l-.7.8Zm3.3-55.5a14 14 0 0 0-3.6 3.9l.9.5a13 13 0 0 1 3.2-3.6l-.5-.8Zm-3.6 3.9A45 45 0 0 0 383 82l.9.4 3-5.7-.8-.5ZM383 82c-1 2-1.8 4.2-2.4 6.3l1 .2c.6-2 1.4-4 2.3-6.1l-1-.4Zm-2.4 6.3c-.6 2-.8 3.7-.6 5l1-.2c-.2-1 0-2.6.6-4.6l-1-.2Zm.3 5.2c2.1-3.3 4-6.6 5.7-9.8l-.9-.5c-1.6 3.2-3.5 6.5-5.7 9.7l.9.6Zm5.7-9.8c1.7-3.3 3-7 3.8-11l-1-.1c-.8 3.8-2 7.4-3.7 10.6l1 .5Zm81.8 31.7.2-.4-.6-.3v.7h.4Zm.2 2.9-.5.2.5-.2Zm.8 1.6-.5.2.5-.2Zm1.6 2.4.3.5.5-.3-.3-.4-.5.2Zm-1.4.2-.2.4.2-.4Zm-1.2-.6-.2.4v.1l.2-.5Zm-3-4.1.5-.2-.4.2Zm-1.6-6.5.5-.1h-.5Zm-.4-6.8h-.5.5Zm1-13h-.5.5Zm1.6-8h-.5.5Zm2.6-7.6.4.2-.4-.2Zm9.6-21.3-.4-.3.4.3Zm13.6-18.9.4.4-.4-.4Zm2.3-2.4-.4-.4.4.4Zm2.7-2.2-.3-.5.3.5Zm2.2-1 .2.4-.2-.5Zm2.6-.6v.5-.5Zm4.8 4 .5-.1h-.5Zm-.1 4.2h-.5.5Zm-1 4 .5.2-.4-.2Zm-4.2 9.6.4.3-.4-.3Zm-5.4 9 .5.3-.5-.3Zm-9.4 12.9-.4-.3.4.3Zm-10 12.3.5.4-.4-.4Zm-2.3 3 .4.3-.4-.3Zm-2.4 2.9.3.3-.3-.3Zm-3 5.7h-.5.5Zm-.7 3.7h.5-.5Zm-.5 3.5h-.5v.6l.6-.1-.1-.5Zm1-.6.5.3-.5-.3Zm.6-.9-.4-.3.4.3Zm7.5-8.7.4.4-.4-.4Zm1.8-1.4.2.4-.2-.4Zm2.5-.1-.1.4v-.4Zm.6 1.5-.3-.3.3.3Zm-4.2 6-.4-.3.4.3Zm-3.2 4.3.4.3-.4-.3Zm-2.7 4.3-.4-.2.4.2Zm-.8 4.1-.4.3.4-.3Zm3.7 2.6.2-.4-.2.4Zm7.8 1.9v-.5.5Zm11.4-.2v-.5.5Zm14-2 .1.6v-.5Zm15.4-3.8.1.5-.1-.5Zm15.5-5.7.1.4-.1-.4Zm14.6-7.6-.2-.4.2.4Zm1-.5.2.4h.1l-.3-.4Zm1-.7.3-.3-.2-.2h-.3l.2.5Zm.6.3.5.3.5-.8h-1v.5Zm-.9.8.3.4-.3-.4Zm-1.3 1 .3.5v-.1l-.3-.4ZM530 109.7l-.2-.5.2.5Zm-24 6.6.1.5v-.5Zm-21.7 2v.5-.5ZM471 87.8l-.4-.1-.2.7.7-.2v-.5Zm1-.4-.3-.4.4.4Zm.7-.7.4.4-.4-.4Zm7.6-9.5-.4-.3.4.3Zm7.4-9.6-.4-.3.4.3Zm8.6-13.4.4.2-.4-.2Zm6-14.2-.5-.1.4.1Zm.6-3.5h-.5.5Zm-.4-3.7h-.5.5Zm-1.4-.6-.3-.4.3.4Zm-2 1.9.4.3-.4-.3Zm-1.8 2 .4.3-.4-.3ZM482.6 58l.5.2-.5-.3Zm-10.1 24-.5-.1.5.1Zm-1 3-.4-.2.5.2Zm-3.7 30.5v1.6h1v-1.5l-1-.1Zm0 1.6c0 .5 0 1 .2 1.5l1-.4a3 3 0 0 1-.3-1.1h-1Zm.2 1.5.8 1.6.9-.5-.8-1.5-.9.4Zm.8 1.7 1.7 2.4.9-.5-1.7-2.5-.9.6Zm2 1.7c-.5.2-.8.2-1.1.1l-.4 1c.6.2 1.3 0 1.9-.2l-.5-1Zm-1 .1a16 16 0 0 0-1.3-.5l-.3.9 1 .5.5-.9Zm-1.2-.5a7.1 7.1 0 0 1-2.8-3.9l-1 .3a8.1 8.1 0 0 0 3.3 4.4l.5-.8Zm-2.8-3.9c-.7-2.1-1.3-4.3-1.6-6.4l-1 .2c.3 2.2.9 4.4 1.7 6.5l1-.3Zm-1.6-6.4c-.5-2.2-.6-4.4-.4-6.6l-1-.1c-.2 2.3 0 4.6.4 6.9l1-.2Zm-.4-6.6 1-13-1-.1-1 13h1Zm1-13c.4-2.7.9-5.3 1.6-7.9l-1-.2c-.7 2.6-1.2 5.2-1.6 8h1Zm1.6-7.9c.7-2.6 1.6-5.1 2.5-7.6l-.9-.4c-1 2.6-1.8 5.1-2.6 7.7l1 .3Zm2.5-7.6c2.6-7.6 5.7-14.7 9.6-21.2l-.8-.6c-4 6.7-7.2 13.8-9.7 21.5l1 .3Zm9.6-21.2A142 142 0 0 1 492.1 36l-.7-.7a143 143 0 0 0-13.7 19l.8.5ZM492.1 36l2.2-2.5-.7-.7-2.2 2.5.7.7Zm2.2-2.4c.8-.8 1.7-1.5 2.7-2.2l-.6-.8-2.8 2.2.7.8Zm2.6-2.2a16 16 0 0 1 2.2-1l-.4-1-2.3 1.1.5 1Zm2.2-1c.7-.3 1.5-.5 2.4-.5v-1c-1 0-2 .2-2.8.6l.4.9Zm2.4-.5c1.4-.1 2.4.1 3 .7.7.5 1.1 1.4 1.3 2.8l1-.2c-.2-1.5-.7-2.6-1.6-3.4-1-.8-2.2-1-3.8-.9l.1 1Zm4.3 3.5c.2 1.4.1 2.8-.1 4.1l1 .2c.2-1.4.3-3 .1-4.4h-1Zm-.1 4.1c-.2 1.3-.5 2.6-1 4l1 .3c.5-1.4.8-2.8 1-4.1l-1-.2Zm-.9 4a79 79 0 0 1-4.3 9.5l1 .5c1.6-3.2 3-6.4 4.2-9.7l-.9-.3Zm-4.3 9.5c-1.6 3-3.4 6-5.3 9l.9.5c1.9-3 3.7-6 5.3-9l-.9-.5Zm-5.3 9c-3 4.3-6 8.6-9.4 12.8l.7.6c3.4-4.2 6.6-8.5 9.6-12.9l-.9-.6Zm-9.4 12.8-10 12.3.9.7 9.8-12.4-.7-.6Zm-10 12.3-2.3 3 .8.6 2.4-3-.8-.6Zm-2.3 3a72 72 0 0 1-2.4 2.9l.7.6c1-1 1.7-1.9 2.5-2.9l-.8-.6Zm-2.4 2.8a10.7 10.7 0 0 0-3.1 6l1 .2c.3-2 1.2-3.9 2.8-5.5l-.7-.7Zm-3.1 6-.7 3.6 1 .3.7-3.7-1-.2Zm-.7 3.6-.5 3.6 1 .1c0-1.2.3-2.3.5-3.4l-1-.3Zm0 4.2c.7-.1 1.2-.3 1.5-.8l-.9-.5s-.2.2-.7.3l.2 1Zm1.5-.8.5-.9-.9-.5-.5 1 .9.4Zm.4-.9 3.7-4.4-.8-.6-3.6 4.4.8.6Zm3.7-4.4c1.2-1.4 2.5-2.9 3.9-4.2l-.8-.7a60.8 60.8 0 0 0-3.9 4.3l.8.6Zm3.9-4.3 1.6-1.3-.4-.9c-.7.3-1.3.9-2 1.6l.8.6Zm1.6-1.3c.6-.2 1.3-.3 2.2 0l.2-1c-1-.3-2-.3-2.8.1l.4 1Zm2.2 0 .5.1h.1v.2l-.2.4.7.6.5-.7v-.8c-.1-.3-.4-.5-.6-.6l-.8-.2-.2 1Zm.3.8a71.4 71.4 0 0 1-4.2 5.9l.7.6c1.7-2 3.1-4 4.4-6l-.9-.5Zm-4.3 6-3 4.2.7.6 3.2-4.3-.9-.6Zm-3 4.2c-1.1 1.3-2 2.8-2.8 4.4l.9.4c.7-1.5 1.6-3 2.6-4.2l-.8-.6Zm-2.8 4.4c-.5 1-.9 1.9-1 2.6a3 3 0 0 0 .2 2l.9-.5c-.2-.2-.2-.7-.1-1.3.1-.6.4-1.4.9-2.4l-1-.4Zm-.8 4.6c.6 1 2 1.8 3.8 2.8l.5-1c-2-.9-3-1.7-3.5-2.3l-.8.5Zm3.8 2.8c2 1 4.6 1.6 8 1.9l.1-1c-3.3-.3-5.9-.9-7.6-1.8l-.5.9Zm8 1.9c3.4.2 7.3.2 11.5-.2v-1c-4.3.4-8 .4-11.4.2v1Zm11.5-.2c4.4-.3 9.1-1 14.1-2l-.1-1c-5 1-9.7 1.7-14 2v1Zm14.1-2c5-1 10.2-2.3 15.4-3.8l-.3-1c-5.1 1.6-10.2 2.9-15.3 3.9l.2 1Zm15.4-3.8c5.3-1.7 10.4-3.6 15.5-5.8l-.3-.9a175 175 0 0 1-15.5 5.7l.3 1Zm15.6-5.8c5.2-2.2 10-4.8 14.7-7.6l-.5-.8c-4.6 2.8-9.5 5.3-14.6 7.5l.4 1Zm14.7-7.5 1-.6-.6-.8a8 8 0 0 1-.9.5l.5.9Zm1-.6.9-.6-.4-1-1.2.8.7.8Zm.3-.7c.3.3.7.4 1 .4v-1l-.3-.1-.7.7Zm.6-.4c0 .2-.3.4-.7.7l.5.8c.5-.3.8-.6 1-1l-.8-.5Zm-.7.7c-.5.2-1 .6-1.4 1l.7.8 1.2-1-.5-.8Zm-1.3 1c-7.3 4.2-15 7.8-23.2 10.7l.3 1c8.3-3 16-6.6 23.4-10.8l-.5-.9Zm-23.2 10.8c-8.1 2.9-16 5-23.8 6.6l.1 1c7.9-1.5 15.9-3.8 24-6.7l-.3-1Zm-23.8 6.6c-7.8 1.3-15 2-21.7 1.9v1c6.7 0 14-.6 21.8-2l-.1-1Zm-21.7 1.9c-6.5 0-11.8-1-15.8-2.8l-.4.9c4.2 1.9 9.6 2.8 16.2 2.9v-1ZM471 88.2c.6 0 1-.2 1.3-.5l-.7-.7s-.2.2-.7.3l.1 1Zm1.3-.5.7-.6-.7-.7-.7.6.7.7Zm.7-.7 7.6-9.5-.8-.6a910 910 0 0 0-7.6 9.5l.8.6Zm7.6-9.5c2.6-3 5-6.3 7.4-9.6l-.8-.6a157 157 0 0 1-7.4 9.6l.8.6ZM488 68c3.3-4.4 6.2-9 8.6-13.5l-.9-.4c-2.4 4.5-5.2 8.9-8.5 13.3l.8.6Zm8.6-13.5c1.2-2.2 2.4-4.5 3.4-6.9l-1-.4a101 101 0 0 1-3.3 6.9l.9.4Zm3.4-6.9c1-2.3 2-4.8 2.6-7.3l-1-.3c-.6 2.5-1.5 4.9-2.5 7.2l.9.4Zm2.6-7.3c.4-1.2.6-2.4.7-3.6l-1-.1c0 1.2-.3 2.3-.6 3.4l1 .3Zm.7-3.6c0-1.3 0-2.6-.4-4l-1 .3c.4 1.2.5 2.4.4 3.6h1Zm-.4-3.9c0-.5-.2-1-.7-1.1-.5-.2-1 0-1.4.2l.4.9.4-.2h.2l.1.3 1-.1Zm-2.2-.9c-.7.6-1.4 1.2-2 2l.7.6c.6-.7 1.2-1.3 1.9-1.8l-.6-.8Zm-2 2a23 23 0 0 0-1.9 2l.8.6 1.8-2-.7-.7Zm-1.9 2c-5.5 7-10.3 14.2-14.6 21.8l.9.5c4.2-7.5 9-14.7 14.5-21.7l-.8-.6Zm-14.6 21.8c-4.3 7.5-7.7 15.5-10.2 24.2l1 .2c2.5-8.5 5.9-16.5 10-23.9l-.8-.5ZM472 81.8l-.9 3 1 .2.9-3-1-.2Zm-.9 3c-.3 1-.5 1.9-.6 2.9l1 .1.6-2.8-1-.2Zm83.2 27.7.5-.1h-.5Zm-.6-14.3h.5-.5Zm2.4-15.7.5.2-.5-.2Zm5.1-16-.4-.1.4.2Zm7-15.4-.5-.2.4.2Zm7.7-14 .4.2-.4-.3Zm8-11.8-.5-.3.4.4Zm4-4.6-.4-.4.4.4Zm4.5-4 .3.3-.3-.4Zm3.3-2.1-.2-.5.2.5Zm4-.6v.5-.5Zm4.8 4.5h-.5.5Zm0 3.6h.5-.5Zm-.8 3.4-.5-.2.5.2Zm-3.5 9.9-.4-.2.4.2Zm-4.4 9.2.4.2-.4-.2ZM560 93.7l-.3-.3.3.3Zm-1.4 2.8h.5-.5Zm-.5 3h-.5.5Zm-.1 8.1h-.5.5Zm1.1 8-.4.1.4-.1Zm1 2.7-.5.2.4-.2Zm1.2 2.9-.4.2.4-.2Zm11.5 8v-.5.5Zm10-.1v-.5.5Zm12.7-3.1-.1-.5.1.5Zm14.7-5.2-.2-.5.2.5Zm15.5-6.8.2.5-.2-.5Zm15-7.8.2.4-.3-.4Zm13.7-8.2.3.4-.3-.4Zm1-.6.2.4-.3-.4Zm1-.6.3-.3-.2-.2h-.3l.2.5Zm.6.3.4.3.6-.8h-1v.5Zm-.9.8.3.4-.3-.4Zm-1.3 1 .3.5v-.1l-.3-.4Zm-20.7 11.7-.2-.4.2.4Zm-21.4 10.6-.2-.5.2.5Zm-20.3 7.4-.1-.5.1.5Zm-17.3 2.4v.5-.5Zm-16.9-37-.5-.1-.3 1.7 1.2-1.3-.4-.3Zm18.1-23.7-.4-.2.4.2Zm14.2-23.5.4.2-.4-.2Zm4.6-9.4.5.2-.5-.2Zm3.7-9.8-.5-.2.5.2Zm1-4 .5.2-.5-.1Zm.3-4.1h-.5.5Zm-.1-1.8h-.5.5Zm-1-1.3.3-.5-.3.5Zm-1.5.2.3.4-.3-.4Zm-1.3 1-.3-.3.3.4Zm-4.8 4.6-.4-.3.4.3Zm-4 5.1.3.3-.4-.3Zm-12.7 20.2-.4-.3.4.3ZM565.5 69l-.5-.1.5.1Zm-2 5.9.5.1-.4-.1Zm-2 6.5.5.1-.5-.1Zm-2 6.5-.5-.2.5.2Zm-4.7 24.5c-.8-4.4-1-9.1-.6-14.2h-1a52 52 0 0 0 .6 14.3l1-.1Zm-.6-14.2c.3-5.1 1.1-10.3 2.4-15.5l-1-.3a91.7 91.7 0 0 0-2.4 15.7h1Zm2.4-15.5c1.3-5.4 3-10.7 5-16l-.8-.3c-2.1 5.3-3.8 10.6-5.1 16l1 .3Zm5-16a231 231 0 0 1 7-15.4l-1-.4c-2.4 5-4.7 10-6.8 15.5l.9.3Zm7-15.4c2.5-5 5-9.7 7.7-14l-.8-.5c-2.7 4.3-5.3 9-7.8 14l.9.5Zm7.7-14c2.7-4.4 5.3-8.3 8-11.6l-.9-.7c-2.6 3.4-5.2 7.4-8 11.8l1 .5Zm8-11.6c1.2-1.7 2.6-3.2 4-4.7l-.8-.7c-1.4 1.5-2.7 3-4 4.7l.7.7Zm4-4.7c1.3-1.4 2.8-2.8 4.4-4l-.6-.8a34.1 34.1 0 0 0-4.6 4.1l.7.7Zm4.4-4c1-.8 2-1.5 3.2-2l-.4-.9c-1.2.5-2.3 1.3-3.4 2.2l.6.7Zm3.2-2c1-.5 2.3-.6 3.7-.5l.2-1c-1.6-.1-3 0-4.3.6l.4 1Zm3.8-.5c1.3 0 2.3.4 3 1 .7.7 1.1 1.7 1.3 3l1-.1a5.6 5.6 0 0 0-1.6-3.6c-1-.8-2.2-1.2-3.7-1.3v1Zm4.3 4c.2 1.2.2 2.4 0 3.5l1 .2c.2-1.3.2-2.6 0-3.8l-1 .1Zm0 3.5c-.2 1.1-.4 2.2-.8 3.3l1 .3c.4-1.1.6-2.3.8-3.4l-1-.2Zm-.8 3.3c-.9 3.4-2 6.7-3.4 9.9l.9.4c1.4-3.3 2.5-6.6 3.5-10l-1-.3Zm-3.4 9.9a99.1 99.1 0 0 1-4.4 9.2l.8.4c1.7-3 3.2-6.1 4.5-9.2l-1-.4Zm-4.4 9.1a238.6 238.6 0 0 1-35.7 49l.7.8c14-15 26-31.4 35.8-49.3l-.8-.5Zm-35.7 49.1c-.8.8-1.3 1.8-1.6 3l1 .2c.2-1 .7-1.8 1.3-2.5l-.7-.7Zm-1.6 3-.5 3.1 1 .1c0-1 .2-2 .5-3l-1-.3Zm-.5 3.1c-.2 2.8-.2 5.5-.1 8.2h1c-.1-2.7 0-5.4.1-8l-1-.2Zm-.1 8.2c0 2.7.5 5.4 1.2 8l1-.3c-.8-2.5-1.1-5.1-1.2-7.8h-1Zm1.2 8c.2 1 .5 1.9.9 2.8l1-.4-1-2.7-1 .3Zm.9 2.8 1.3 2.9.9-.4-1.3-3-1 .5Zm1.3 3c2.7 4.5 6.6 7.3 11.8 8.2l.2-1c-4.9-.8-8.6-3.4-11.1-7.8l-.9.5Zm11.8 8.2c2.8.5 6.2.5 10.2-.1l-.2-1c-3.8.6-7.1.6-9.8.1l-.2 1Zm10.2-.1a85 85 0 0 0 12.8-3.2l-.3-1a84.2 84.2 0 0 1-12.7 3.2l.2 1Zm12.8-3.2a159 159 0 0 0 14.7-5.2l-.4-.9c-5 2-10 3.8-14.6 5.2l.3 1Zm14.7-5.2c5.2-2 10.4-4.3 15.5-6.7l-.4-1c-5.1 2.5-10.3 4.7-15.5 6.8l.4 1Zm15.5-6.7c5.1-2.6 10.1-5.2 15-7.9l-.5-.8c-4.8 2.7-9.8 5.3-15 7.8l.5.9Zm15-7.9c5-2.7 9.5-5.5 13.8-8.2l-.5-.8c-4.3 2.7-8.9 5.4-13.8 8.2l.5.8Zm13.8-8.2 1-.6-.6-.8-1 .6.6.8Zm1-.6c.1-.2.4-.3.9-.5l-.4-1-1.1.7.5.8Zm.3-.6c.3.3.6.4 1 .4v-1l-.3-.1-.7.7Zm.6-.4-.7.7.5.8c.4-.3.8-.6 1-1l-.8-.5Zm-.7.7c-.5.2-1 .6-1.4 1l.7.8 1.2-1-.5-.8Zm-1.3 1c-6.5 3.9-13.4 7.8-20.7 11.7l.5.9c7.3-4 14.2-7.8 20.7-11.7l-.5-.9Zm-20.7 11.7c-7.2 3.9-14.3 7.4-21.4 10.5l.4 1c7.1-3.2 14.3-6.7 21.5-10.6l-.5-1Zm-21.4 10.5c-7 3.1-13.7 5.6-20.2 7.4l.3 1c6.5-1.9 13.3-4.4 20.3-7.5l-.4-.9Zm-20.2 7.4a52 52 0 0 1-17.1 2.4l-.1 1c5.1.3 11-.5 17.5-2.4l-.3-1Zm-17.1 2.4a22.2 22.2 0 0 1-13.8-5c-3.3-3-5.6-7.4-6.6-13.1l-1 .1a23 23 0 0 0 7 13.7c3.5 3.2 8.3 5 14.3 5.3v-1Zm-16.6-36.2c6.8-7.5 12.8-15.4 18.1-23.7l-.8-.5c-5.3 8.2-11.3 16-18 23.6l.7.6Zm18.1-23.7c5.3-8.2 10-16 14.2-23.6l-.9-.4C586 54 581.2 61.8 576 70l.8.5ZM591 47c1.7-3 3.3-6.2 4.7-9.4l-1-.4c-1.3 3.1-2.8 6.2-4.6 9.4l.9.4Zm4.7-9.4c1.4-3.2 2.6-6.5 3.7-9.9l-1-.3c-1 3.4-2.2 6.7-3.6 9.8l1 .4Zm3.7-9.9c.4-1.3.8-2.6 1-4l-1-.1c-.2 1.2-.6 2.5-1 3.8l1 .3Zm1-4c.3-1.4.4-2.8.3-4.2h-1c0 1.4 0 2.7-.3 4l1 .3Zm.3-4.2-.1-1.9-1 .2v1.7h1Zm-.1-1.9c-.2-.7-.6-1.3-1.2-1.7l-.5 1c.4.1.6.4.7.9l1-.2Zm-1.3-1.7a2 2 0 0 0-1-.1c-.5 0-.8.2-1 .5l.6.7.5-.3.6.1.3-.9Zm-2 .3-1.3 1 .6.9 1.3-1-.6-.9Zm-1.3 1c-1.8 1.5-3.4 3-4.9 4.7l.7.7c1.5-1.7 3-3.2 4.8-4.5l-.6-.8Zm-5 4.7-4 5.1.8.6 4-5-.7-.7Zm-4 5.1a133 133 0 0 0-12.6 20.2l.9.5a132 132 0 0 1 12.5-20.1l-.8-.6Zm-12.6 20.2A200 200 0 0 0 565 69l1 .3c2.7-7.4 5.7-14.6 9.2-21.5l-1-.5ZM565 69l-2 5.8 1 .3 2-5.8-1-.3Zm-2 5.8-2 6.5 1 .3a292 292 0 0 1 2-6.5l-1-.3Zm-2 6.5-2 6.5 1 .3 2-6.5-1-.3Zm-2 6.6c-.5 2.1-1 4.2-1.3 6.1l1 .2L560 88l-1-.2Zm142.1 24-.1-.5.1.5Zm16.7-5.6.2.5-.2-.5Zm16-8.2.2.4-.2-.4Zm.9-.6-.3-.4.3.4Zm1-.6.4-.3-.3-.2h-.3l.2.5Zm.7.3.4.3.5-.8h-1v.5Zm-1 .8.3.4-.3-.4Zm-1.3 1 .3.4h.1l-.4-.4Zm-16 8.5.2.4-.1-.4Zm-16.7 5.6-.1-.5v.5Zm-11 2.6v.5-.5Zm-11.8 1.5v-.5.5Zm-10.5.6v-.5.5Zm-8-1 .2-.6-.1.5Zm-5.3-5-.4.1.4-.1Zm-.9-8h-.5.5Zm2.1-8.3-.4-.2.4.2Zm3.8-6.4.4.4-.4-.4Zm7.4-2-.2.4.2-.4Zm2 3.3h-.4.5Zm-4.2 8.1.3.4-.3-.4Zm-4.2 1.6v-.5.5Zm-1.8 1.3.5.1-.5-.1Zm-.6 3.4h.5-.5Zm-.3 4h-.5.5Zm.6 3.8h-.4v.1l.4-.1Zm2 2.4.3-.4-.3.4Zm6.8 1.4v.5-.5Zm10.6-.3v.5-.5Zm12-1.7v.5-.5Zm-29.3-16.7h-.5v1l.8-.6-.3-.4Zm1.8-2.2-.4-.2.4.2Zm.7-2.7h.5l.1-1.3-1 1 .4.3Zm38 19.6c5.5-1.5 11-3.4 16.7-5.6l-.4-1c-5.5 2.3-11 4.1-16.6 5.6l.3 1Zm16.7-5.6c5.5-2.3 10.9-5 16-8.3l-.5-.8c-5.1 3.2-10.4 5.9-16 8.1l.5 1Zm16-8.3 1-.6-.6-.8-1 .6.7.8Zm1-.6.9-.5-.4-1-1.1.7.5.8Zm.4-.6c.2.3.6.4 1 .4v-1l-.3-.1-.7.7Zm.5-.4c0 .2-.3.4-.7.7l.5.8c.5-.3.8-.6 1-1l-.8-.5Zm-.7.7c-.5.2-1 .6-1.4 1l.7.8 1.2-1-.5-.8Zm-1.3 1c-5.1 3.4-10.4 6.2-16 8.4l.4 1c5.6-2.3 11-5.2 16.1-8.6l-.5-.8Zm-16 8.4c-5.5 2.2-11 4-16.6 5.6l.2 1c5.7-1.6 11.3-3.5 16.8-5.7l-.3-.9Zm-16.6 5.6c-3.4 1-7 1.8-11 2.6l.1 1c4-.8 7.7-1.7 11.1-2.6l-.2-1Zm-11 2.6c-4 .7-8 1.2-11.7 1.5v1c4-.3 7.8-.8 11.8-1.5l-.1-1Zm-11.7 1.5c-3.7.5-7.2.6-10.5.6v1c3.3 0 6.9-.1 10.6-.6l-.1-1Zm-10.5.6a25 25 0 0 1-7.8-1l-.3.9c2.2.7 4.9 1 8.1 1v-1Zm-7.8-1a7.3 7.3 0 0 1-5-4.7l-1 .3c1 2.6 3 4.4 5.7 5.3l.3-1Zm-5-4.7c-.8-2.3-1.1-5-.9-7.7l-1-.1c-.2 3 0 5.6 1 8.1l1-.3Zm-.9-7.7c.3-2.8 1-5.5 2-8.2l-.8-.4a28.4 28.4 0 0 0-2.2 8.5h1Zm2-8.2c1.3-2.7 2.5-4.8 3.8-6.2l-.8-.7a25.1 25.1 0 0 0-3.8 6.5l.9.4Zm3.8-6.2a6 6 0 0 1 3-2.1c1.1-.4 2.4-.3 3.8.1l.3-1c-1.5-.4-3-.5-4.4-.1a7 7 0 0 0-3.5 2.4l.8.7Zm6.9-2c.9.3 1.4.7 1.6 1 .3.5.3 1 .1 1.8l1 .3c.2-1 .2-1.8-.2-2.6-.5-.7-1.3-1.1-2.3-1.4l-.2 1Zm1.7 2.8c-.7 3.2-2 5.8-4.2 7.9l.7.7c2.3-2.3 3.8-5 4.5-8.3l-1-.3Zm-4.2 7.9a4.4 4.4 0 0 1-3.7 1.4l-.1 1c1.7.2 3.2-.4 4.5-1.7l-.7-.7Zm-3.7 1.4c-.6 0-1.1 0-1.5.3-.5.3-.7.8-.9 1.3l1 .3c.1-.4.3-.6.5-.8.1 0 .4-.2.8-.1v-1Zm-2.4 1.6c-.2 1-.5 2-.6 3.5l1 .1c.1-1.4.3-2.5.6-3.3l-1-.3Zm-.6 3.5c-.2 1.3-.3 2.7-.3 4h1c0-1.3 0-2.6.3-3.9l-1-.1Zm-.3 4.1c0 1.3.3 2.6.7 3.9l1-.3c-.4-1.2-.6-2.4-.7-3.7l-1 .1Zm.7 4a5.2 5.2 0 0 0 2.1 2.6l.6-.8a4.2 4.2 0 0 1-1.8-2.2l-1 .3Zm2.1 2.6c1.5 1 3.9 1.5 7 1.5v-1c-3 0-5.2-.5-6.4-1.3l-.6.8Zm7 1.5c3.3.1 6.8 0 10.8-.3l-.1-1c-4 .3-7.4.4-10.6.3v1Zm10.8-.3c3.9-.5 7.9-1 12-1.7l-.2-1c-4 .7-8 1.2-12 1.7l.2 1Zm12-1.7c4.1-.8 7.8-1.6 11-2.5l-.2-1c-3.2.9-6.9 1.7-11 2.5l.2 1Zm-29-16.8c1-.7 1.6-1.5 2-2.4l-1-.3c-.2.6-.8 1.3-1.7 2l.6.7Zm2-2.4c.3-1 .5-1.9.6-2.9h-1c0 .9-.3 1.7-.6 2.5l1 .4Zm-.3-3.3c-.7.8-1.3 1.5-1.7 2.2l.8.5 1.7-2-.8-.7Zm-1.7 2.2c-.5.8-.8 1.8-.9 3l1 .2c.1-1.2.4-2 .7-2.7l-.8-.5ZM177.5 180.7V194h-1.4v-6.1h-8.3v6.1h-1.4v-13.3h1.4v6h8.3v-6h1.4Zm11.2 3.2c1.3 0 2.3.4 3 1 .7.7 1 1.6 1 3v6.1h-1.3v-1.6a3 3 0 0 1-1.3 1.3c-.6.2-1.3.4-2.1.4-1.1 0-2-.3-2.7-.8-.6-.5-1-1.2-1-2.1 0-.9.3-1.5 1-2 .6-.6 1.5-.8 2.9-.8h3.2v-.7c0-.8-.3-1.5-.8-2-.4-.4-1.2-.6-2-.6a5.2 5.2 0 0 0-3.4 1.2l-.6-1c.5-.5 1.1-.8 1.8-1a7 7 0 0 1 2.3-.4Zm-.5 9.1c.7 0 1.4-.1 2-.5.5-.3.9-.8 1.2-1.5v-1.6h-3.2c-1.7 0-2.5.6-2.5 1.8 0 .5.2 1 .6 1.3.5.4 1 .5 1.9.5Zm16.9-9a4 4 0 0 1 3 1c.7.8 1 1.8 1 3.2v5.8h-1.3v-5.7c0-1-.2-1.8-.8-2.3-.5-.6-1.2-.9-2.2-.9-1 0-2 .4-2.5 1-.7.6-1 1.5-1 2.7v5.2H200v-10h1.3v1.8c.3-.6.8-1 1.5-1.4.6-.3 1.4-.5 2.3-.5Zm20.5-4.1V194h-1.3v-2a4 4 0 0 1-1.6 1.6c-.7.3-1.4.5-2.2.5a5 5 0 0 1-2.6-.7c-.8-.4-1.3-1-1.8-1.8-.4-.7-.6-1.6-.6-2.6s.2-1.9.6-2.6c.5-.8 1-1.4 1.8-1.8a5 5 0 0 1 4.7-.2 4 4 0 0 1 1.7 1.5v-6h1.3Zm-5 13c.7 0 1.3-.2 1.9-.5.5-.3 1-.8 1.3-1.4.3-.6.5-1.2.5-2s-.2-1.4-.5-2c-.3-.6-.8-1-1.3-1.4-.6-.3-1.2-.5-2-.5-.6 0-1.3.2-1.8.5-.6.3-1 .8-1.4 1.4-.3.6-.5 1.2-.5 2s.2 1.4.5 2c.4.6.8 1 1.4 1.4.5.3 1.2.5 1.9.5Zm24.8-9a4 4 0 0 1 3 1.1c.7.7 1 1.8 1 3.2v5.8h-1.3v-5.7c0-1-.2-1.8-.7-2.3-.5-.6-1.2-.9-2.2-.9-1 0-1.8.4-2.4 1-.6.6-.9 1.5-.9 2.7v5.2h-1.3v-5.7c0-1-.3-1.8-.8-2.3-.5-.6-1.2-.9-2.1-.9-1 0-1.9.4-2.5 1-.6.6-.9 1.5-.9 2.7v5.2H233v-10h1.3v1.8c.3-.6.8-1 1.4-1.4.7-.3 1.4-.5 2.2-.5.9 0 1.6.2 2.2.6.6.3 1 .8 1.4 1.5.4-.6.9-1.1 1.6-1.5.7-.4 1.5-.6 2.3-.6Zm14.8 0c1.3 0 2.3.4 3 1 .7.7 1 1.6 1 3v6.1H263v-1.6a3 3 0 0 1-1.4 1.3c-.5.2-1.2.4-2 .4-1.2 0-2-.3-2.7-.8-.7-.5-1-1.2-1-2.1 0-.9.3-1.5 1-2 .5-.6 1.5-.8 2.9-.8h3.1v-.7c0-.8-.2-1.5-.7-2-.5-.4-1.2-.6-2.1-.6a5.2 5.2 0 0 0-3.3 1.2l-.6-1c.5-.5 1-.8 1.8-1a7 7 0 0 1 2.2-.4Zm-.4 9.1c.7 0 1.4-.1 2-.5.5-.3.9-.8 1.1-1.5v-1.6h-3.1c-1.7 0-2.6.6-2.6 1.8 0 .5.2 1 .7 1.3.4.4 1 .5 1.9.5Zm21-13.1V194h-1.4v-2c-.4.7-1 1.2-1.6 1.6-.7.3-1.4.5-2.2.5a5 5 0 0 1-2.6-.7c-.7-.4-1.3-1-1.8-1.8-.4-.7-.6-1.6-.6-2.6s.2-1.9.6-2.6c.5-.8 1-1.4 1.8-1.8a5 5 0 0 1 4.7-.2 4 4 0 0 1 1.7 1.5v-6h1.3Zm-5.1 13c.7 0 1.3-.2 1.9-.5.5-.3 1-.8 1.3-1.4.3-.6.5-1.2.5-2s-.2-1.4-.5-2c-.3-.6-.8-1-1.3-1.4-.6-.3-1.2-.5-2-.5-.6 0-1.3.2-1.8.5-.6.3-1 .8-1.4 1.4-.3.6-.5 1.2-.5 2s.2 1.4.5 2c.4.6.8 1 1.4 1.4.5.3 1.2.5 1.9.5Zm21-3.5h-8.3c0 1 .5 1.9 1.2 2.5a4 4 0 0 0 2.7 1c.7 0 1.2-.1 1.8-.3.5-.3 1-.6 1.3-1l.8.9c-.5.5-1 .9-1.7 1.2-.7.3-1.4.4-2.2.4-1 0-2-.2-2.7-.7-.8-.4-1.4-1-1.9-1.8-.4-.7-.6-1.6-.6-2.6s.2-1.8.6-2.6a4.7 4.7 0 0 1 4.3-2.5c.9 0 1.7.2 2.4.7.8.4 1.4 1 1.8 1.8.4.7.6 1.6.6 2.6v.4Zm-4.8-4.3c-1 0-1.7.3-2.4 1-.6.5-1 1.3-1 2.3h7c0-1-.5-1.8-1.1-2.4-.7-.6-1.5-1-2.4-1Zm21.5-3.2v5.2h6.9v1.3h-6.9v5.6H312v-13.3h9.1v1.2h-7.7Zm17 2c1.4 0 2.4.4 3 1 .8.7 1.1 1.6 1.1 3v6.1h-1.3v-1.6a3 3 0 0 1-1.3 1.3c-.6.2-1.3.4-2.1.4-1.1 0-2-.3-2.7-.8-.6-.5-1-1.2-1-2.1 0-.9.3-1.5 1-2 .6-.6 1.5-.8 2.9-.8h3.2v-.7c0-.8-.3-1.5-.8-2-.5-.4-1.2-.6-2-.6a5.2 5.2 0 0 0-3.4 1.2l-.6-1c.5-.5 1.1-.8 1.8-1a7 7 0 0 1 2.3-.4Zm-.4 9.1c.7 0 1.4-.1 2-.5.5-.3.9-.8 1.2-1.5v-1.6H330c-1.7 0-2.5.6-2.5 1.8 0 .5.2 1 .6 1.3.5.4 1 .5 1.9.5Zm14.5 1a8 8 0 0 1-2.4-.2c-.7-.3-1.3-.6-1.7-1l.6-1 1.6.8c.6.2 1.3.3 2 .3.9 0 1.5-.1 2-.4.4-.3.6-.7.6-1.2a1 1 0 0 0-.3-.9l-1-.4c-.3-.2-.8-.3-1.4-.4l-2-.4a3 3 0 0 1-1.2-.8c-.4-.4-.6-1-.6-1.6 0-.9.4-1.5 1-2 .8-.6 1.8-.9 3-.9a7.3 7.3 0 0 1 3.5 1l-.6 1a5 5 0 0 0-2.9-.8c-.9 0-1.5.1-2 .4-.4.3-.6.7-.6 1.2 0 .4.1.7.4 1 .2.2.5.4.9.5l1.5.3 2 .4 1.2.8c.3.4.5.9.5 1.5 0 1-.4 1.6-1.1 2.1-.7.5-1.8.8-3 .8Zm15.3-10a4 4 0 0 1 3 1c.7.8 1 1.8 1 3.2v5.8h-1.3v-5.7c0-1-.2-1.8-.8-2.3-.5-.6-1.2-.9-2.2-.9-1 0-1.9.4-2.5 1-.7.6-1 1.5-1 2.7v5.2h-1.3v-14.1h1.3v5.9c.4-.6.9-1 1.6-1.4a5 5 0 0 1 2.2-.5Zm11.3 0h1.4v10h-1.4v-10Zm.7-2.2a1 1 0 0 1-.7-.3 1 1 0 0 1 0-1.3c.2-.2.5-.3.7-.3.3 0 .5.1.7.3l.3.6c0 .3 0 .5-.3.7a1 1 0 0 1-.7.3Zm12.1 12.3c-1 0-1.8-.2-2.6-.7-.7-.4-1.3-1-1.8-1.8-.4-.7-.6-1.6-.6-2.6s.2-1.8.6-2.6c.5-.8 1-1.4 1.8-1.8.8-.5 1.7-.7 2.6-.7 1 0 1.9.2 2.7.7.7.4 1.3 1 1.8 1.8.4.8.6 1.6.6 2.6s-.2 1.9-.6 2.6c-.5.8-1 1.4-1.8 1.8-.8.5-1.7.7-2.7.7Zm0-1.2c.8 0 1.4-.2 2-.5.5-.3 1-.8 1.3-1.4.3-.6.5-1.2.5-2s-.2-1.4-.5-2c-.3-.6-.8-1-1.4-1.4-.5-.3-1.1-.5-1.9-.5-.7 0-1.3.2-1.9.5-.5.3-1 .8-1.3 1.4-.3.6-.5 1.2-.5 2s.2 1.4.5 2c.3.6.8 1 1.3 1.4.6.3 1.2.5 2 .5Zm16.6-9a4 4 0 0 1 3 1.1c.7.8 1 1.8 1 3.2v5.8h-1.3v-5.7c0-1-.2-1.8-.7-2.3-.6-.6-1.3-.9-2.3-.9-1 0-1.9.4-2.5 1-.7.6-1 1.5-1 2.7v5.2h-1.3v-10h1.3v1.8c.3-.6.9-1 1.5-1.4.7-.3 1.4-.5 2.3-.5Zm23.4 0c1.3 0 2.3.4 3 1 .7.7 1 1.6 1 3v6.1h-1.2v-1.6a3 3 0 0 1-1.4 1.3c-.5.2-1.2.4-2 .4-1.2 0-2-.3-2.7-.8-.7-.5-1-1.2-1-2.1 0-.9.3-1.5 1-2 .5-.6 1.5-.8 2.9-.8h3.1v-.7c0-.8-.2-1.5-.7-2-.5-.4-1.2-.6-2.1-.6a5.2 5.2 0 0 0-3.3 1.2l-.6-1c.5-.5 1-.8 1.8-1a7 7 0 0 1 2.2-.4Zm-.4 9.1c.7 0 1.4-.1 2-.5.5-.3.9-.8 1.1-1.5v-1.6h-3.1c-1.7 0-2.6.6-2.6 1.8 0 .5.3 1 .7 1.3.4.4 1 .5 1.9.5Zm16.8-9a4 4 0 0 1 3 1c.8.8 1.1 1.8 1.1 3.2v5.8h-1.3v-5.7c0-1-.3-1.8-.8-2.3-.5-.6-1.2-.9-2.2-.9-1 0-2 .4-2.6 1-.6.6-.9 1.5-.9 2.7v5.2h-1.3v-10h1.2v1.8c.4-.6 1-1 1.6-1.4.6-.3 1.4-.5 2.2-.5Zm20.6-4.1V194h-1.3v-2c-.4.7-1 1.2-1.6 1.6-.7.3-1.4.5-2.3.5a5 5 0 0 1-2.5-.7c-.8-.4-1.4-1-1.8-1.8-.4-.7-.6-1.6-.6-2.6s.2-1.9.6-2.6c.4-.8 1-1.4 1.8-1.8a5 5 0 0 1 4.7-.2 4 4 0 0 1 1.6 1.5v-6h1.4Zm-5 13c.6 0 1.3-.2 1.8-.5.6-.3 1-.8 1.4-1.4.3-.6.4-1.2.4-2s-.1-1.4-.4-2c-.4-.6-.8-1-1.4-1.4-.5-.3-1.2-.5-1.9-.5s-1.3.2-1.9.5c-.5.3-1 .8-1.3 1.4-.3.6-.5 1.2-.5 2s.2 1.4.5 2c.3.6.8 1 1.3 1.4.6.3 1.2.5 2 .5Zm22.6 1.2c-.7 0-1.4-.2-2-.5-.7-.3-1.2-.8-1.6-1.4l.8-1c.7 1.2 1.7 1.7 2.9 1.7 1.6 0 2.4-1 2.4-3v-8h-4.8v-1.2h6.2v9.2c0 1.4-.3 2.5-1 3.2-.6.7-1.6 1-2.9 1Zm26.1-10-3.8 9.9h-1.2l-3.2-8.2-3.1 8.2H492l-3.8-10h1.3l3.2 8.5 3.2-8.5h1.1l3.2 8.5 3.2-8.5h1.2Zm14 5.3h-8.3c.1 1 .5 1.9 1.2 2.5a4 4 0 0 0 2.8 1c.6 0 1.2-.1 1.7-.3.5-.3 1-.6 1.3-1l.8.9c-.5.5-1 .9-1.7 1.2-.6.3-1.4.4-2.2.4-1 0-2-.2-2.7-.7-.8-.4-1.4-1-1.9-1.8-.4-.7-.6-1.6-.6-2.6s.2-1.8.6-2.6a4.7 4.7 0 0 1 4.3-2.5c.9 0 1.7.2 2.5.7.7.4 1.3 1 1.7 1.8.4.7.6 1.6.6 2.6v.4Zm-4.7-4.3c-1 0-1.8.3-2.5 1-.6.5-1 1.3-1 2.3h7c0-1-.4-1.8-1.1-2.4-.7-.6-1.5-1-2.4-1Zm11.2-5.2h1.3V194h-1.3v-14.1Zm17.4 9.5H534c0 1 .5 1.9 1.2 2.5a4 4 0 0 0 2.8 1c.6 0 1.1-.1 1.7-.3.5-.3 1-.6 1.3-1l.8.9c-.5.5-1 .9-1.7 1.2-.7.3-1.4.4-2.2.4-1 0-2-.2-2.7-.7-.8-.4-1.4-1-1.9-1.8-.4-.7-.6-1.6-.6-2.6s.2-1.8.6-2.6a4.7 4.7 0 0 1 4.3-2.5c.9 0 1.7.2 2.4.7.8.4 1.4 1 1.8 1.8.4.7.6 1.6.6 2.6v.4Zm-4.8-4.3c-1 0-1.8.3-2.5 1-.6.5-1 1.3-1 2.3h7c0-1-.5-1.8-1.1-2.4-.7-.6-1.5-1-2.4-1Zm12.4.9c.4-.7.8-1.2 1.5-1.6.6-.3 1.4-.5 2.3-.5v1.3h-.3c-1 0-2 .3-2.5 1-.6.6-.9 1.5-.9 2.7v5.1h-1.3v-10h1.2v2Zm18.7-2-5 11.2c-.4 1-1 1.6-1.4 2-.6.4-1.2.6-2 .6-.4 0-.9 0-1.3-.2a3 3 0 0 1-1-.7l.5-1c.5.5 1.2.7 1.9.7.4 0 .8-.1 1.1-.4.4-.2.7-.6 1-1.3l.4-1-4.5-9.9h1.4l3.8 8.5 3.7-8.5h1.4Z" fill="#FFF1E6"/><path stroke="#FFF1E6" stroke-width="2" stroke-linecap="round" d="M1 189h125.3M609 189h125.3"/></svg>