<svg id="Layer_1" data-name="Layer 1" xmlns="http://www.w3.org/2000/svg" viewBox="0 0 83.55 87.01"><defs><style>.cls-1{fill:#0c120c;}</style></defs><path class="cls-1" d="M49.24,59.94C36.39,59.94,25.11,46.88,25.11,32c0-13.89,10.38-24.36,24.13-24.36S73.37,18.1,73.37,32C73.37,46.88,62.09,59.94,49.24,59.94Zm0-48.54C37.45,11.4,28.89,20.06,28.89,32c0,12.88,9.51,24.18,20.35,24.18S69.6,44.87,69.6,32C69.6,20.06,61,11.4,49.24,11.4Z" transform="translate(-7.47 -7.63)"/><path class="cls-1" d="M91,94.64H7.47v-2A43.93,43.93,0,0,1,28.13,55.21l1.48-.9,1.1,1.33c5.2,6.26,11.92,9.71,18.93,9.71S63.15,62,68.31,56l1.12-1.32,1.47.92A43.44,43.44,0,0,1,91,92.64v2Zm-79.49-4H87a39.46,39.46,0,0,0-16.8-30.78c-5.76,6.14-13,9.49-20.53,9.49s-15-3.47-20.84-9.81A39.88,39.88,0,0,0,11.52,90.64Z" transform="translate(-7.47 -7.63)"/></svg>