<?xml version="1.0" encoding="UTF-8" standalone="no"?>
<!DOCTYPE svg PUBLIC "-//W3C//DTD SVG 1.1//EN" "http://www.w3.org/Graphics/SVG/1.1/DTD/svg11.dtd">
<svg version="1.1" xmlns="http://www.w3.org/2000/svg" xmlns:xlink="http://www.w3.org/1999/xlink" preserveAspectRatio="xMidYMid meet" viewBox="0 0 640 640" width="640" height="640"><defs><path d="M97.28 169.98C88.58 161.28 87.04 147.46 94.72 138.24C103.42 127.49 119.3 126.98 129.02 136.7C146.59 154.27 287.08 294.76 304.64 312.32C312.83 320.51 326.66 320.51 334.85 312.32C352.41 294.76 492.9 154.27 510.46 136.7C519.68 127.49 534.02 127.49 543.23 136.7C552.45 145.92 552.45 160.26 543.23 169.47C522.44 190.26 356.15 356.56 335.36 377.34C326.66 386.05 313.34 386.05 304.64 377.34C263.17 335.87 118.02 190.72 97.28 169.98Z" id="bayg8A3Dl"></path></defs><g><g><g><use xlink:href="#bayg8A3Dl" opacity="1" fill="#0c120c" fill-opacity="1"></use><g><use xlink:href="#bayg8A3Dl" opacity="1" fill-opacity="0" stroke="#000000" stroke-width="1" stroke-opacity="0"></use></g></g></g></g></svg>