<svg id="Layer_1" data-name="Layer 1" xmlns="http://www.w3.org/2000/svg" viewBox="0 0 43.69 44.48"><defs><style>.cls-1{fill:#fff1e6;}</style></defs><path class="cls-1" d="M34.45,10.54H33a8.81,8.81,0,0,0-17.62,0H13.55a6.12,6.12,0,0,0-6,4.8L2.3,38.75A6.14,6.14,0,0,0,7,46.09a6,6,0,0,0,1.34.15H39.7a6.15,6.15,0,0,0,6.15-6.15,6,6,0,0,0-.15-1.34L40.45,15.34A6.12,6.12,0,0,0,34.45,10.54ZM24.15,3.76A6.82,6.82,0,0,1,31,10.54H17.34A6.82,6.82,0,0,1,24.15,3.76ZM42.94,42.68a4.14,4.14,0,0,1-3.24,1.56H8.3a4.15,4.15,0,0,1-4.15-4.15,4.51,4.51,0,0,1,.1-.9L9.5,15.78a4.12,4.12,0,0,1,4.05-3.24h1.78v4.81a1,1,0,0,0,2,0V12.54H31v4.81a1,1,0,0,0,2,0V12.54h1.49a4.12,4.12,0,0,1,4,3.24l5.25,23.41A4.14,4.14,0,0,1,42.94,42.68Z" transform="translate(-2.15 -1.76)"/></svg>